<svg width="73" height="73" viewBox="0 0 73 73" fill="none" xmlns="http://www.w3.org/2000/svg">
<path d="M0 15C0 6.71573 6.71573 0 15 0H58C66.2843 0 73 6.71573 73 15V58C73 66.2843 66.2843 73 58 73H15C6.71573 73 0 66.2843 0 58V15Z" fill="#FFD299"/>
<path d="M37 46.8543C39.1764 46.8543 41.016 46.1036 42.5188 44.6022C44.0215 43.1009 44.7729 41.2613 44.7729 39.0835C44.7729 36.9057 44.0215 35.0661 42.5188 33.5647C41.016 32.0634 39.1764 31.312 37 31.3106C34.8236 31.3092 32.984 32.0606 31.4813 33.5647C29.9785 35.0689 29.2271 36.9085 29.2271 39.0835C29.2271 41.2585 29.9785 43.0981 31.4813 44.6022C32.984 46.1064 34.8236 46.8578 37 46.8564M37 44.7731C35.3819 44.7731 34.0292 44.2293 32.9417 43.1418C31.8542 42.0543 31.3104 40.7016 31.3104 39.0835C31.3104 37.4654 31.8542 36.1127 32.9417 35.0252C34.0292 33.9377 35.3819 33.3939 37 33.3939C38.6181 33.3939 39.9708 33.9377 41.0583 35.0252C42.1458 36.1127 42.6896 37.4654 42.6896 39.0835C42.6896 40.7016 42.1458 42.0543 41.0583 43.1418C39.9708 44.2293 38.6181 44.7731 37 44.7731ZM21.6167 53.6668C20.6569 53.6668 19.8563 53.346 19.2146 52.7043C18.5729 52.0627 18.2514 51.2613 18.25 50.3002V27.8668C18.25 26.9071 18.5715 26.1064 19.2146 25.4647C19.8576 24.8231 20.6576 24.5016 21.6146 24.5002H27.7771L30.6229 21.4064C30.9243 21.0703 31.2903 20.8071 31.7208 20.6168C32.1528 20.4279 32.6104 20.3335 33.0938 20.3335H40.9063C41.3896 20.3335 41.8472 20.4286 42.2792 20.6189C42.7097 20.8078 43.0757 21.071 43.3771 21.4085L46.225 24.5002H52.3875C53.3458 24.5002 54.1465 24.8217 54.7896 25.4647C55.4326 26.1078 55.7528 26.9085 55.75 27.8668V50.3022C55.75 51.2606 55.4292 52.0613 54.7875 52.7043C54.1458 53.3474 53.3451 53.6682 52.3854 53.6668H21.6167ZM21.6167 51.5835H52.3854C52.759 51.5835 53.066 51.4634 53.3063 51.2231C53.5465 50.9828 53.6667 50.6759 53.6667 50.3022V27.8647C53.6667 27.4911 53.5465 27.1842 53.3063 26.9439C53.066 26.7036 52.759 26.5835 52.3854 26.5835H45.3083L41.4667 22.4168H32.5333L28.6917 26.5835H21.6146C21.241 26.5835 20.934 26.7036 20.6937 26.9439C20.4535 27.1842 20.3333 27.4918 20.3333 27.8668V50.3022C20.3333 50.6759 20.4535 50.9828 20.6937 51.2231C20.934 51.4634 21.2417 51.5835 21.6167 51.5835Z" fill="#311B00"/>
</svg>
