<svg width="51" height="50" viewBox="0 0 51 50" fill="none" xmlns="http://www.w3.org/2000/svg">
<ellipse cx="25.5" cy="24.7714" rx="25.5" ry="24.7714" transform="rotate(-180 25.5 24.7714)" fill="#F3D192"/>
<path d="M21.0555 11.014C22.4724 10.8187 23.6639 11.6857 24.2276 12.8125L25.6143 15.5852C26.3836 17.1238 25.9416 18.9292 24.7756 20.0649C24.0867 20.7352 23.3944 21.5011 22.9929 22.1769C22.9662 22.2251 22.9579 22.2813 22.9695 22.3351C23.3408 24.3467 24.7041 26.3342 25.9203 27.7594C25.9816 27.8272 26.0614 27.8754 26.1499 27.8983C26.2383 27.9211 26.3316 27.9176 26.418 27.888L29.1508 27.0341C29.887 26.804 30.6775 26.8158 31.4064 27.0677C32.1354 27.3196 32.7645 27.7984 33.2016 28.4339L35.1795 31.3111C35.7158 32.0914 35.9873 33.1501 35.5762 34.1683C35.2091 35.0779 34.4989 36.3896 33.2071 37.2621C31.8664 38.1668 30.0301 38.5106 27.6273 37.6869C24.9426 36.7657 22.4064 34.4557 20.3034 31.5015C18.1879 28.5287 16.4465 24.8156 15.3905 20.9436C14.3923 17.2881 14.9945 14.8269 16.4121 13.2422C17.7796 11.7132 19.7389 11.1948 21.0555 11.014ZM22.6897 13.5811C22.3755 12.9534 21.8152 12.6434 21.2893 12.7156C20.1198 12.8764 18.6554 13.3116 17.6936 14.3876C16.782 15.4071 16.1509 17.2029 17.0474 20.4912C18.0546 24.1817 19.7128 27.7086 21.7031 30.5046C23.7058 33.3186 25.9814 35.3054 28.1842 36.061C30.147 36.7341 31.4086 36.4013 32.2446 35.8376C33.1287 35.2401 33.6725 34.2907 33.9819 33.5248C34.1235 33.1742 34.0623 32.7204 33.7626 32.2846L31.7846 29.4081C31.5558 29.0752 31.2263 28.8243 30.8445 28.6923C30.4627 28.5603 30.0486 28.5541 29.663 28.6745L26.9302 29.5284C26.1134 29.7834 25.1936 29.5559 24.6126 28.8752C23.3469 27.3923 21.7341 25.1181 21.2783 22.6465C21.1912 22.1833 21.2752 21.7042 21.5148 21.2983C22.0359 20.4224 22.8609 19.5294 23.5752 18.8336C24.273 18.1544 24.471 17.1437 24.0764 16.3538L22.6897 13.5811Z" fill="#2E4343"/>
</svg>
