<svg width="51" height="50" viewBox="0 0 51 50" fill="none" xmlns="http://www.w3.org/2000/svg">
<ellipse cx="25.5" cy="24.7714" rx="25.5" ry="24.7714" transform="rotate(-180 25.5 24.7714)" fill="#FFD299"/>
<path d="M21.056 11.014C22.4729 10.8187 23.6644 11.6857 24.2281 12.8125L25.6148 15.5852C26.3841 17.1238 25.9421 18.9292 24.7761 20.0649C24.0872 20.7352 23.3949 21.5011 22.9934 22.1769C22.9667 22.2251 22.9583 22.2813 22.97 22.3351C23.3412 24.3467 24.7046 26.3342 25.9207 27.7594C25.9821 27.8272 26.0619 27.8754 26.1504 27.8983C26.2388 27.9211 26.332 27.9175 26.4185 27.888L29.1513 27.0341C29.8875 26.804 30.6779 26.8158 31.4069 27.0677C32.1359 27.3196 32.765 27.7984 33.2021 28.4339L35.18 31.3111C35.7162 32.0914 35.9878 33.1501 35.5767 34.1683C35.2096 35.0779 34.4994 36.3896 33.2076 37.2621C31.8669 38.1668 30.0306 38.5106 27.6278 37.6869C24.9431 36.7657 22.4069 34.4557 20.3039 31.5015C18.1884 28.5287 16.447 24.8156 15.391 20.9436C14.3927 17.2881 14.995 14.8269 16.4126 13.2422C17.7801 11.7132 19.7394 11.1948 21.056 11.014ZM22.6902 13.5811C22.376 12.9534 21.8157 12.6434 21.2897 12.7156C20.1203 12.8764 18.6559 13.3116 17.6941 14.3876C16.7825 15.4071 16.1514 17.2029 17.0479 20.4912C18.0551 24.1817 19.7133 27.7086 21.7036 30.5046C23.7063 33.3186 25.9819 35.3054 28.1847 36.061C30.1475 36.7341 31.4091 36.4013 32.2451 35.8376C33.1292 35.2401 33.673 34.2907 33.9824 33.5248C34.124 33.1742 34.0628 32.7204 33.7631 32.2846L31.7851 29.4081C31.5562 29.0752 31.2268 28.8243 30.845 28.6923C30.4632 28.5603 30.0491 28.5541 29.6635 28.6745L26.9307 29.5284C26.1139 29.7834 25.1941 29.5559 24.6131 28.8752C23.3474 27.3923 21.7346 25.1181 21.2787 22.6465C21.1917 22.1833 21.2757 21.7042 21.5152 21.2983C22.0364 20.4224 22.8614 19.5294 23.5757 18.8336C24.2735 18.1544 24.4715 17.1437 24.0769 16.3538L22.6902 13.5811Z" fill="#311B00"/>
</svg>
