<svg width="75" height="74" viewBox="0 0 75 74" fill="none" xmlns="http://www.w3.org/2000/svg">
<g clip-path="url(#clip0_479_477)">
<path d="M7.46887 48.0761L3.89639 52.4197H1.90574V48.0761H0V58.4725H1.90574V54.3133H3.89639L7.32106 58.4725H9.78028L5.57885 53.3665L9.92809 48.0761H7.46887Z" fill="#2E4343"/>
<path d="M17.011 48.0761H11.3535V58.4725H13.2593V54.8758L17.055 54.8289C18.9041 54.8071 20.4105 53.2915 20.4105 51.4541C20.4105 49.6167 18.8853 48.0761 17.011 48.0761ZM17.0299 52.9384L13.2561 52.9853V49.9698H17.011C17.8349 49.9698 18.5048 50.6354 18.5048 51.4541C18.5048 52.2728 17.8444 52.929 17.0299 52.9384Z" fill="#2E4343"/>
<path d="M71.6008 48.0761H65.9434V58.4725H67.8491V54.8758L71.6449 54.8289C73.494 54.8071 75.0003 53.2915 75.0003 51.4541C75.0003 49.6167 73.4751 48.0761 71.6008 48.0761ZM71.6197 52.9384L67.8491 52.9853V49.9698H71.604C72.4279 49.9698 73.0977 50.6354 73.0977 51.4541C73.0977 52.2728 72.4373 52.929 71.6228 52.9384H71.6197Z" fill="#2E4343"/>
<path d="M30.5867 56.5789H24.2971V54.2227H30.5867V52.329H24.2971V49.9698H30.5867V48.0761H22.3945V58.4725H30.5867V56.5789Z" fill="#2E4343"/>
<path d="M59.7988 48.0761H57.3082C55.0533 48.0761 53.2168 49.901 53.2168 52.1415V54.4071C53.2168 56.6476 55.0533 58.4725 57.3082 58.4725H59.7988C62.0536 58.4725 63.8902 56.6476 63.8902 54.4071V52.1415C63.8902 49.901 62.0536 48.0761 59.7988 48.0761ZM61.9845 54.4071C61.9845 55.6039 61.0033 56.5789 59.7988 56.5789H57.3082C56.1037 56.5789 55.1225 55.6039 55.1225 54.4071V52.1415C55.1225 50.9447 56.1037 49.9698 57.3082 49.9698H59.7988C61.0033 49.9698 61.9845 50.9447 61.9845 52.1415V54.4071Z" fill="#2E4343"/>
<path d="M35.1026 55.9008H40.499L41.5808 58.4757H43.6438L39.2789 48.0792H36.329L31.9609 58.4757H34.0208L35.1026 55.9008ZM37.5964 49.9698H38.0084L39.7034 54.0071H35.8982L37.5964 49.9698Z" fill="#2E4343"/>
<path d="M46.514 58.4725H48.4197V49.9698H52.3224V48.0761H42.6113V49.9698H46.514V58.4725Z" fill="#2E4343"/>
<path d="M27.3304 67.2472L23.5346 67.2003V65.4972H29.733V63.6036H21.6289V74H27.2864C29.1607 74 30.6859 72.4844 30.6859 70.622C30.6859 68.7596 29.1795 67.269 27.3304 67.2472ZM27.2864 72.1063H23.5315V69.0908L27.3052 69.1377C28.1197 69.1471 28.7801 69.8127 28.7801 70.622C28.7801 71.4314 28.1103 72.1063 27.2864 72.1063Z" fill="#2E4343"/>
<path d="M48.5326 63.6036H45.5828L42.0103 72.1063H40.7461V74H53.3693V72.1063H52.1051L48.5326 63.6036ZM46.8501 65.4972H47.2621L50.0389 72.1063H44.0733L46.8501 65.4972Z" fill="#2E4343"/>
<path d="M39.9381 63.6036L36.8153 69.219L33.6925 63.6036H31.2773L35.6077 71.3907L34.158 74H36.5732L42.3533 63.6036H39.9381Z" fill="#2E4343"/>
<path d="M57.0771 35.1735L42.3187 32.458C41.9633 32.3924 41.5985 32.483 41.3155 32.7017L40.6959 33.183C40.501 33.333 40.2683 33.4236 40.023 33.4455L37.1612 33.6736L34.0196 33.9704C31.922 34.1548 29.8339 34.4079 27.7394 34.6329C25.6481 34.8923 23.56 35.1454 21.4719 35.4485C20.302 35.6172 19.129 35.7922 17.9623 35.9829L17.8711 36.4641C19.1007 36.4485 20.3272 36.4203 21.5536 36.3828C23.6606 36.3203 25.7645 36.211 27.8684 36.1016C29.9691 35.9579 32.0729 35.8485 34.1674 35.6672L37.3153 35.4173L39.8437 35.1798C40.1991 35.1454 40.5544 35.1516 40.9098 35.1891C42.2746 35.3391 43.6458 35.4704 45.0137 35.5954C46.5924 35.7547 48.1742 35.8704 49.7561 35.9954C51.3379 36.1141 52.9229 36.2203 54.5078 36.3016C55.423 36.3516 56.3381 36.3891 57.2532 36.4235L57.0803 35.1735H57.0771Z" fill="#2E4343"/>
<path d="M56.7073 32.8486L56.6602 32.533L56.5564 31.7955L42.3325 26.9926C42.0055 26.8832 41.6407 26.9395 41.3671 27.1489L40.6469 27.6926C40.5148 27.7926 40.3576 27.8613 40.1941 27.8894L37.2065 28.405L34.1592 28.9769C32.1245 29.3425 30.1024 29.78 28.0772 30.1862C26.0551 30.6268 24.0361 31.0643 22.0235 31.5455C20.8914 31.8174 19.7592 32.0955 18.6303 32.3861L18.5391 32.8767C19.7592 32.7549 20.9763 32.6142 22.1902 32.4674C24.2468 32.2205 26.2941 31.9268 28.3414 31.6362C30.3823 31.3112 32.4296 31.0174 34.4643 30.6518L37.521 30.1269L39.5431 29.7487C40.106 29.6425 40.6846 29.6581 41.2413 29.7894C42.4206 30.0644 43.603 30.3237 44.7854 30.5768C46.3107 30.9206 47.8453 31.2206 49.3768 31.533C50.9115 31.8362 52.4493 32.1268 53.9902 32.3955C54.8267 32.5424 55.6664 32.6799 56.5061 32.8111L56.7073 32.8736V32.8424V32.8486Z" fill="#2E4343"/>
<path d="M56.1657 29.2831L56.1374 29.1019L56.0211 28.2676L42.6054 21.9397C42.1306 21.7178 41.5802 21.7241 41.1148 21.9584L40.6462 22.1928C40.5456 22.2428 40.4387 22.2834 40.3286 22.3147L37.253 23.149L34.3 23.9927C32.3283 24.5427 30.3754 25.1614 28.4162 25.7489C26.4632 26.3676 24.5135 26.9895 22.5731 27.652C21.4788 28.0269 20.3875 28.4051 19.2994 28.7988L19.2051 29.3019C20.4158 29.0644 21.6234 28.8113 22.8279 28.5519C24.8311 28.1176 26.8249 27.6426 28.8155 27.1676C30.7999 26.6582 32.7906 26.1833 34.7623 25.6364L37.7279 24.8365L39.3789 24.3677C40.0519 24.1771 40.772 24.2052 41.4293 24.4458C42.4702 24.824 43.5143 25.1958 44.5583 25.5583C46.0301 26.0864 47.5144 26.577 48.9988 27.0707C50.4831 27.5613 51.9769 28.0363 53.4738 28.4957C54.3323 28.7582 55.194 29.0113 56.0588 29.255L56.1657 29.3019V29.2831Z" fill="#2E4343"/>
<path d="M29.2866 22.6834C31.2112 21.9928 33.1484 21.3303 35.0573 20.6023L37.9316 19.5273L39.6424 18.8617C40.1424 18.668 40.7053 18.6961 41.1833 18.9398L42.1959 19.4586L44.3312 20.5148C45.7495 21.2272 47.1867 21.9084 48.6207 22.5897C50.0579 23.2709 51.5013 23.9302 52.9574 24.5771C53.8348 24.9677 54.7185 25.3489 55.6084 25.7208L55.6242 25.7302V25.702L55.4889 24.7521L42.611 16.5337C42.1708 16.2524 41.6173 16.2087 41.1393 16.4181L40.5449 16.6774L40.1738 16.818L37.3026 17.8992L34.4472 19.0179C32.5383 19.7492 30.6546 20.5491 28.7614 21.321C26.8777 22.1209 24.9971 22.9209 23.1291 23.7615C22.0724 24.2396 21.0189 24.7208 19.9686 25.2177L19.8711 25.7364C21.0755 25.3802 22.2706 25.0083 23.4656 24.6302C25.4185 24.0084 27.3557 23.349 29.2897 22.6865L29.2866 22.6834Z" fill="#2E4343"/>
<path d="M54.9485 21.2085L42.404 11.1995C41.9511 10.8402 41.3316 10.7714 40.8096 11.0245L34.5923 14.0432C32.7464 14.9619 30.9318 15.9368 29.1047 16.8899C27.2902 17.868 25.4756 18.8492 23.6831 19.8679C22.6642 20.4491 21.6453 21.0335 20.6358 21.6303L20.5352 22.1709C21.7302 21.6928 22.9158 21.196 24.0982 20.696C25.9976 19.8867 27.8814 19.0429 29.7588 18.193C31.6268 17.3211 33.5043 16.4681 35.3565 15.5618C36.7748 14.8744 38.1931 14.1869 39.6051 13.4807C40.1303 13.2182 40.7561 13.2557 41.2467 13.5838L42.0675 14.1338L44.1242 15.4681C45.489 16.3649 46.8727 17.2368 48.2627 18.1024C49.6464 18.9742 51.049 19.8179 52.4547 20.6554C53.329 21.171 54.2064 21.6803 55.0901 22.1803L54.9548 21.2022L54.9485 21.2085Z" fill="#2E4343"/>
<path d="M54.4117 17.6836L42.2917 5.79975C41.8232 5.3404 41.0967 5.2529 40.5338 5.59351L34.7474 9.07774C32.9674 10.1839 31.2158 11.3339 29.4579 12.4713L26.8414 14.2119L24.2438 15.9837C23.2595 16.6712 22.2752 17.3586 21.3003 18.0617L21.1934 18.6305C22.3789 18.0211 23.5551 17.3961 24.7281 16.7649L27.4861 15.2494L30.222 13.7025C32.0334 12.6495 33.8511 11.6058 35.6437 10.5214C36.9645 9.72459 38.2853 8.92775 39.5966 8.11841C40.1187 7.79654 40.7917 7.84342 41.2602 8.23715C42.1376 8.97462 43.0213 9.70584 43.9144 10.4246L45.8957 12.037L47.8989 13.6213C49.2291 14.6806 50.5877 15.7118 51.9462 16.743C52.8079 17.3899 53.679 18.0305 54.5532 18.6617L54.418 17.6836H54.4117Z" fill="#2E4343"/>
<path d="M53.8993 14.2619L41.902 0.453105C41.4523 -0.0656227 40.6755 -0.149994 40.1252 0.259364L34.9048 4.11858C33.194 5.41227 31.5021 6.73409 29.8134 8.05591L27.2976 10.0621L24.8038 12.0995C23.854 12.8932 22.9043 13.69 21.9609 14.4963L21.8477 15.0994C23.0238 14.3556 24.1874 13.5932 25.3509 12.8307L28.0272 11.0339L30.6782 9.20586C32.433 7.97154 34.1878 6.73722 35.9237 5.47164C37.1974 4.53731 38.4741 3.60922 39.7415 2.66551C40.1723 2.34678 40.7698 2.39052 41.1441 2.77488C41.9963 3.64672 42.8485 4.51543 43.7165 5.37165L45.6159 7.26532L47.5406 9.13086C48.8173 10.3808 50.1287 11.5995 51.4369 12.8213C52.286 13.6057 53.1446 14.3806 54.0125 15.1525L53.8962 14.2619H53.8993Z" fill="#2E4343"/>
<path d="M57.625 38.7734L42.4703 37.4922C42.0143 37.4547 41.5677 37.639 41.2721 37.989L40.8696 38.4703C40.5991 38.7921 40.1998 38.9734 39.7784 38.9702L37.1776 38.9484L31.495 38.9984C29.6018 39.0452 27.7055 39.064 25.8124 39.1452C22.9726 39.2421 20.1329 39.3733 17.2931 39.5858L17.2051 40.0608C20.0731 40.2764 22.9443 40.4108 25.8124 40.5077C27.7055 40.5889 29.6018 40.6077 31.495 40.6545L37.1776 40.7045L42.8602 40.6577C44.7534 40.6077 46.6497 40.592 48.5429 40.5108C51.6279 40.4077 54.7129 40.2546 57.7948 40.0077L57.6219 38.7765L57.625 38.7734Z" fill="#2E4343"/>
</g>
<defs>
<clipPath id="clip0_479_477">
<rect width="75" height="74" fill="white"/>
</clipPath>
</defs>
</svg>
