<svg width="286" height="118" viewBox="0 0 286 118" fill="none" xmlns="http://www.w3.org/2000/svg">
<g clip-path="url(#clip0_602_861)">
<path d="M286 35.2088L143.019 0L0 35.2088L143.019 9.72397L286 35.2088Z" fill="url(#paint0_linear_602_861)"/>
<path d="M206.211 109.713L277.433 108.414L206.211 107.114V109.713Z" fill="url(#paint1_linear_602_861)"/>
<path d="M79.7901 109.713V107.114L8.56836 108.414L79.7901 109.713Z" fill="url(#paint2_linear_602_861)"/>
<path d="M100.528 117.725V100.839H92.373V98.6895H112.799V100.839H104.669V117.725H100.528Z" fill="url(#paint3_linear_602_861)"/>
<path d="M136.751 117.725L134.775 113.063H124.218L122.242 117.725H117.789L126.332 98.6895H132.661L141.179 117.725H136.751ZM125.044 111.088H133.95L130.072 101.927H128.921L125.044 111.088Z" fill="url(#paint4_linear_602_861)"/>
<path d="M150.611 118V115.9H151.349C152.575 115.9 153.45 115.713 154.063 115.325C154.663 114.938 155.126 114.388 155.451 113.663L155.964 112.663L146.783 98.6895H150.898L157.628 109.488L163.219 98.6895H167.334L158.766 114.075C158.366 114.763 157.865 115.425 157.29 116.05C156.752 116.625 156.064 117.1 155.226 117.463C154.388 117.825 153.262 118 151.912 118H150.636H150.611Z" fill="url(#paint5_linear_602_861)"/>
<path d="M189.438 117.725V109.263H176.604V117.725H172.414V98.6895H176.604V107.126H189.438V98.6895H193.628V117.725H189.438Z" fill="url(#paint6_linear_602_861)"/>
<path d="M66.8821 75.8293L66.8445 75.9542C66.732 76.2792 66.5819 76.6167 66.3692 77.0041C66.3067 77.1666 66.2191 77.3291 66.1316 77.4791C64.3679 80.5912 61.0407 82.5285 57.4634 82.5285H38.5135C38.5135 82.5285 38.4634 82.5285 38.4384 82.5285H38.3384C37.7129 82.466 37.1626 82.1286 36.8374 81.5786C36.6873 81.3287 36.5997 81.0287 36.5747 80.7287C36.5622 80.6287 36.5622 80.5537 36.5747 80.4288V65.1554C38.2883 65.1554 51.7722 65.1304 52.3601 65.1804C54.3739 65.3429 56.0124 66.9052 56.2626 68.905C56.2751 68.98 56.2751 69.03 56.2751 69.0925V69.2674H58.7517V57.4687H56.2251L56.2001 57.6187C55.9249 59.6685 54.2238 61.2183 52.1474 61.3058C51.8722 61.3183 41.9532 61.3058 36.5747 61.3058V47.3198C36.5622 47.2073 36.5622 47.1323 36.5747 47.0073V46.9198C36.6748 45.9324 37.5128 45.1575 38.4885 45.1575H52.8354C53.3857 45.095 53.9736 45.095 54.599 45.145C54.599 45.145 54.6282 45.1492 54.6866 45.1575C57.8637 45.4575 60.678 47.3073 62.229 50.1195C62.4041 50.4319 62.5542 50.7194 62.6668 51.0069L62.7168 51.1194H64.468V41.0829H20.3516V43.2702L20.5892 43.1827C20.9645 43.0577 21.3647 42.9827 21.7525 42.9827C23.1409 42.9827 24.4042 43.7951 24.9796 45.0575C25.1922 45.495 25.2923 45.9824 25.2923 46.5199V81.3287C25.2923 83.2785 23.7038 84.8658 21.7525 84.8658H21.5649C21.2396 84.8658 20.977 84.8783 20.5767 84.7533L20.3516 84.6908V86.5906H66.5694L69.071 75.8418H66.8821V75.8293Z" fill="url(#paint7_linear_602_861)"/>
<path d="M184.997 75.8295L184.96 75.9545C184.847 76.2919 184.697 76.6169 184.497 77.0043C184.422 77.1668 184.334 77.3293 184.247 77.4793C182.483 80.5915 179.156 82.5288 175.579 82.5288H156.629C156.629 82.5288 156.579 82.5288 156.554 82.5288C156.516 82.5288 156.479 82.5288 156.454 82.5288C155.828 82.4788 155.278 82.1288 154.953 81.5788C154.803 81.3289 154.715 81.0414 154.69 80.7414C154.69 80.6415 154.69 80.554 154.69 80.429V65.1556C156.404 65.1556 169.887 65.1306 170.475 65.1806C172.477 65.3431 174.128 66.9054 174.378 68.9052C174.378 68.9677 174.378 69.0177 174.378 69.0927V69.2677H176.854V57.4689H174.315L174.29 57.6189C174.015 59.6687 172.314 61.2185 170.238 61.306C169.962 61.331 160.043 61.306 154.665 61.306V47.32C154.665 47.22 154.665 47.1325 154.665 47.0075V46.92C154.752 45.9326 155.591 45.1577 156.579 45.1577H170.926C171.476 45.0952 172.076 45.0952 172.702 45.1577C172.739 45.1577 172.739 45.1577 172.789 45.1577C175.966 45.4577 178.781 47.3075 180.332 50.1197C180.507 50.4197 180.657 50.7196 180.77 51.0071L180.82 51.1196H182.583V41.0831H138.467V43.2704L138.704 43.1829C139.08 43.0454 139.48 42.9829 139.868 42.9829C141.256 42.9829 142.519 43.7954 143.082 45.0577C143.295 45.4952 143.408 45.9826 143.408 46.5201V81.3289C143.408 83.2787 141.819 84.866 139.868 84.866H139.68C139.355 84.866 139.092 84.866 138.692 84.766L138.467 84.7035V86.6033H184.685L187.186 75.8545H184.997V75.8295Z" fill="url(#paint8_linear_602_861)"/>
<path d="M118.729 43.1579C115.552 41.7706 112.137 41.0706 108.585 41.0706H74.7129V43.2579L74.9505 43.1704C75.3258 43.0454 75.7135 42.9704 76.1138 42.9704C77.5022 42.9704 78.7655 43.7829 79.3284 45.0452C79.5411 45.4827 79.6536 45.9701 79.6536 46.5076V81.3164C79.6536 83.2662 78.0651 84.8535 76.1138 84.8535H75.9512C75.6135 84.8535 75.3508 84.8535 74.938 84.741L74.7129 84.691V86.5783H108.585C113.263 86.5783 117.816 85.3285 121.719 82.9537C128.673 78.7292 132.826 71.5799 132.826 63.8307C132.826 54.9692 127.297 46.845 118.729 43.1579ZM92.7998 82.5163H92.6997C92.0743 82.4538 91.5239 82.1163 91.1987 81.5664C91.0611 81.3164 90.961 81.0414 90.936 80.7164L90.9861 80.6914L90.9235 80.5665V68.7677C90.9235 62.4434 90.9235 54.4817 90.936 47.1325V46.9075C91.0236 45.9201 91.8741 45.1452 92.8498 45.1452H100.155C111.374 45.1452 120.505 53.5318 120.505 63.8432C120.505 74.1546 111.374 82.5288 100.155 82.5288H92.8748C92.8748 82.5288 92.8248 82.5288 92.7998 82.5288V82.5163Z" fill="url(#paint9_linear_602_861)"/>
<path d="M260.933 45.2827C260.933 45.2827 260.971 45.1702 260.996 45.1202L261.033 45.0452C261.596 43.7829 262.86 42.9704 264.248 42.9704C264.648 42.9704 265.036 43.0454 265.411 43.1704L265.649 43.2579V41.2331C265.649 41.1456 265.574 41.0706 265.486 41.0706H249.651C248.363 41.0706 247.174 41.7706 246.549 42.8955C243.047 49.2323 231.527 69.9926 230.163 72.4548C230.101 72.5673 229.95 72.5548 229.888 72.4548L212.251 42.883C211.588 41.7581 210.375 41.0706 209.062 41.0706H192.989C192.901 41.0706 192.826 41.1456 192.826 41.2331V43.2579L193.064 43.1704C193.439 43.0454 193.827 42.9704 194.227 42.9704C195.615 42.9704 196.879 43.7829 197.442 45.0452C197.654 45.4827 197.767 45.9701 197.767 46.5076V81.1539C197.767 83.1912 196.103 84.8535 194.064 84.8535C193.727 84.8535 193.464 84.8535 193.051 84.741L192.826 84.6785V86.4158C192.826 86.5033 192.901 86.5783 192.989 86.5783H208.586C208.674 86.5783 208.749 86.5033 208.749 86.4158V84.6785L208.524 84.741C208.124 84.8535 207.849 84.8535 207.511 84.8535C205.472 84.8535 203.808 83.1912 203.808 81.1539V52.9694C203.808 52.8069 204.021 52.7444 204.109 52.8819L224.922 86.4908L224.972 86.5783H227.787C227.787 86.5783 227.899 86.5533 227.924 86.5033L248.263 51.4195C248.35 51.2821 248.563 51.3321 248.563 51.507V81.3289C248.563 81.6663 248.513 82.0288 248.4 82.3663C247.95 83.8536 246.586 84.866 245.023 84.866H244.86C244.523 84.866 244.247 84.866 243.847 84.7535L243.622 84.691V86.4283C243.622 86.5158 243.697 86.5908 243.785 86.5908H265.486C265.574 86.5908 265.649 86.5158 265.649 86.4283V84.691L265.424 84.7535C265.023 84.866 264.748 84.866 264.411 84.866H264.248C262.684 84.866 261.321 83.8536 260.871 82.3663C260.758 82.0288 260.708 81.6663 260.708 81.3289V46.5201C260.708 46.0951 260.783 45.6827 260.933 45.2952V45.2827Z" fill="url(#paint10_linear_602_861)"/>
</g>
<defs>
<linearGradient id="paint0_linear_602_861" x1="0" y1="17.6106" x2="286" y2="17.6106" gradientUnits="userSpaceOnUse">
<stop stop-color="#F9E4AB"/>
<stop offset="0.47" stop-color="#EBC179"/>
<stop offset="1" stop-color="#F6E1B3"/>
</linearGradient>
<linearGradient id="paint1_linear_602_861" x1="206.211" y1="108.414" x2="277.433" y2="108.414" gradientUnits="userSpaceOnUse">
<stop stop-color="#F9E4AB"/>
<stop offset="0.47" stop-color="#EBC179"/>
<stop offset="1" stop-color="#F6E1B3"/>
</linearGradient>
<linearGradient id="paint2_linear_602_861" x1="8.56836" y1="108.414" x2="79.7901" y2="108.414" gradientUnits="userSpaceOnUse">
<stop stop-color="#F9E4AB"/>
<stop offset="0.47" stop-color="#EBC179"/>
<stop offset="1" stop-color="#F6E1B3"/>
</linearGradient>
<linearGradient id="paint3_linear_602_861" x1="92.373" y1="108.201" x2="112.799" y2="108.201" gradientUnits="userSpaceOnUse">
<stop stop-color="#F9E4AB"/>
<stop offset="0.47" stop-color="#EBC179"/>
<stop offset="1" stop-color="#F6E1B3"/>
</linearGradient>
<linearGradient id="paint4_linear_602_861" x1="117.789" y1="108.201" x2="141.179" y2="108.201" gradientUnits="userSpaceOnUse">
<stop stop-color="#F9E4AB"/>
<stop offset="0.47" stop-color="#EBC179"/>
<stop offset="1" stop-color="#F6E1B3"/>
</linearGradient>
<linearGradient id="paint5_linear_602_861" x1="146.771" y1="108.339" x2="167.309" y2="108.339" gradientUnits="userSpaceOnUse">
<stop stop-color="#F9E4AB"/>
<stop offset="0.47" stop-color="#EBC179"/>
<stop offset="1" stop-color="#F6E1B3"/>
</linearGradient>
<linearGradient id="paint6_linear_602_861" x1="172.414" y1="108.201" x2="193.628" y2="108.201" gradientUnits="userSpaceOnUse">
<stop stop-color="#F9E4AB"/>
<stop offset="0.47" stop-color="#EBC179"/>
<stop offset="1" stop-color="#F6E1B3"/>
</linearGradient>
<linearGradient id="paint7_linear_602_861" x1="20.3516" y1="63.818" x2="69.071" y2="63.818" gradientUnits="userSpaceOnUse">
<stop stop-color="#F9E4AB"/>
<stop offset="0.47" stop-color="#EBC179"/>
<stop offset="1" stop-color="#F6E1B3"/>
</linearGradient>
<linearGradient id="paint8_linear_602_861" x1="138.467" y1="63.8182" x2="187.186" y2="63.8182" gradientUnits="userSpaceOnUse">
<stop stop-color="#F9E4AB"/>
<stop offset="0.47" stop-color="#EBC179"/>
<stop offset="1" stop-color="#F6E1B3"/>
</linearGradient>
<linearGradient id="paint9_linear_602_861" x1="74.7129" y1="63.8182" x2="132.826" y2="63.8182" gradientUnits="userSpaceOnUse">
<stop stop-color="#F9E4AB"/>
<stop offset="0.47" stop-color="#EBC179"/>
<stop offset="1" stop-color="#F6E1B3"/>
</linearGradient>
<linearGradient id="paint10_linear_602_861" x1="192.826" y1="63.8182" x2="265.649" y2="63.8182" gradientUnits="userSpaceOnUse">
<stop stop-color="#F9E4AB"/>
<stop offset="0.47" stop-color="#EBC179"/>
<stop offset="1" stop-color="#F6E1B3"/>
</linearGradient>
<clipPath id="clip0_602_861">
<rect width="286" height="118" fill="white"/>
</clipPath>
</defs>
</svg>
