<svg width="75" height="74" viewBox="0 0 75 74" fill="none" xmlns="http://www.w3.org/2000/svg">
<g>
<path d="M7.46887 48.0761L3.89639 52.4197H1.90574V48.0761H0V58.4725H1.90574V54.3133H3.89639L7.32106 58.4725H9.78028L5.57885 53.3665L9.92809 48.0761H7.46887Z" fill="#1c3027"/>
<path d="M17.0103 48.0761H11.3528V58.4725H13.2585V54.8758L17.0543 54.8289C18.9034 54.8071 20.4098 53.2915 20.4098 51.4541C20.4098 49.6167 18.8845 48.0761 17.0103 48.0761ZM17.0291 52.9384L13.2554 52.9853V49.9698H17.0103C17.8342 49.9698 18.504 50.6354 18.504 51.4541C18.504 52.2728 17.8436 52.929 17.0291 52.9384Z" fill="#1c3027"/>
<path d="M71.6006 48.0761H65.9431V58.4725H67.8489V54.8758L71.6446 54.8289C73.4937 54.8071 75.0001 53.2915 75.0001 51.4541C75.0001 49.6167 73.4749 48.0761 71.6006 48.0761ZM71.6195 52.9384L67.8489 52.9853V49.9698H71.6037C72.4277 49.9698 73.0975 50.6354 73.0975 51.4541C73.0975 52.2728 72.4371 52.929 71.6226 52.9384H71.6195Z" fill="#1c3027"/>
<path d="M30.5862 56.5789H24.2966V54.2227H30.5862V52.329H24.2966V49.9698H30.5862V48.0761H22.394V58.4725H30.5862V56.5789Z" fill="#1c3027"/>
<path d="M59.7981 48.0761H57.3074C55.0526 48.0761 53.2161 49.901 53.2161 52.1415V54.4071C53.2161 56.6476 55.0526 58.4725 57.3074 58.4725H59.7981C62.0529 58.4725 63.8895 56.6476 63.8895 54.4071V52.1415C63.8895 49.901 62.0529 48.0761 59.7981 48.0761ZM61.9837 54.4071C61.9837 55.6039 61.0026 56.5789 59.7981 56.5789H57.3074C56.103 56.5789 55.1218 55.6039 55.1218 54.4071V52.1415C55.1218 50.9447 56.103 49.9698 57.3074 49.9698H59.7981C61.0026 49.9698 61.9837 50.9447 61.9837 52.1415V54.4071Z" fill="#1c3027"/>
<path d="M35.1021 55.9008H40.4985L41.5804 58.4757H43.6433L39.2784 48.0792H36.3286L31.9604 58.4757H34.0203L35.1021 55.9008ZM37.5959 49.9698H38.0079L39.7029 54.0071H35.8977L37.5959 49.9698Z" fill="#1c3027"/>
<path d="M46.5145 58.4725H48.4202V49.9698H52.3229V48.0761H42.6118V49.9698H46.5145V58.4725Z" fill="#1c3027"/>
<path d="M27.3314 67.2472L23.5356 67.2003V65.4972H29.734V63.6036H21.6299V74H27.2874C29.1616 74 30.6869 72.4844 30.6869 70.622C30.6869 68.7596 29.1805 67.269 27.3314 67.2472ZM27.2874 72.1063H23.5325V69.0908L27.3062 69.1377C28.1207 69.1471 28.7811 69.8127 28.7811 70.622C28.7811 71.4314 28.1113 72.1063 27.2874 72.1063Z" fill="#1c3027"/>
<path d="M48.5336 63.6036H45.5837L42.0113 72.1063H40.7471V74H53.3702V72.1063H52.106L48.5336 63.6036ZM46.8511 65.4972H47.2631L50.0399 72.1063H44.0742L46.8511 65.4972Z" fill="#1c3027"/>
<path d="M39.9388 63.6036L36.816 69.219L33.6933 63.6036H31.2781L35.6084 71.3907L34.1587 74H36.5739L42.354 63.6036H39.9388Z" fill="#1c3027"/>
<path d="M57.0779 35.1735L42.3194 32.458C41.964 32.3924 41.5992 32.483 41.3162 32.7017L40.6967 33.183C40.5017 33.333 40.269 33.4236 40.0237 33.4455L37.1619 33.6736L34.0203 33.9704C31.9227 34.1548 29.8346 34.4079 27.7402 34.6329C25.6489 34.8923 23.5607 35.1454 21.4726 35.4485C20.3027 35.6172 19.1297 35.7922 17.963 35.9829L17.8718 36.4641C19.1014 36.4485 20.3279 36.4203 21.5544 36.3828C23.6614 36.3203 25.7652 36.211 27.8691 36.1016C29.9698 35.9579 32.0737 35.8485 34.1681 35.6672L37.316 35.4173L39.8444 35.1798C40.1998 35.1454 40.5552 35.1516 40.9105 35.1891C42.2754 35.3391 43.6465 35.4704 45.0145 35.5954C46.5932 35.7547 48.175 35.8704 49.7568 35.9954C51.3386 36.1141 52.9236 36.2203 54.5086 36.3016C55.4237 36.3516 56.3388 36.3891 57.254 36.4235L57.081 35.1735H57.0779Z" fill="#1c3027"/>
<path d="M56.7068 32.8486L56.6597 32.533L56.5559 31.7955L42.332 26.9926C42.005 26.8832 41.6402 26.9395 41.3666 27.1489L40.6464 27.6926C40.5143 27.7926 40.3571 27.8613 40.1936 27.8894L37.206 28.4051L34.1587 28.9769C32.1241 29.3425 30.102 29.78 28.0767 30.1862C26.0546 30.6268 24.0357 31.0643 22.023 31.5455C20.8909 31.8174 19.7588 32.0955 18.6298 32.3861L18.5386 32.8767C19.7588 32.7549 20.9758 32.6142 22.1897 32.4674C24.2464 32.2205 26.2936 31.9268 28.3409 31.6362C30.3818 31.3112 32.4291 31.0174 34.4638 30.6518L37.5205 30.1269L39.5426 29.7487C40.1055 29.6425 40.6842 29.6581 41.2408 29.7894C42.4201 30.0644 43.6025 30.3237 44.785 30.5768C46.3102 30.9206 47.8448 31.2206 49.3763 31.533C50.911 31.8362 52.4488 32.1268 53.9897 32.3955C54.8263 32.5424 55.6659 32.6799 56.5056 32.8111L56.7068 32.8736V32.8424V32.8486Z" fill="#1c3027"/>
<path d="M56.1657 29.2831L56.1374 29.1019L56.0211 28.2676L42.6054 21.9397C42.1306 21.7178 41.5802 21.7241 41.1148 21.9584L40.6462 22.1928C40.5456 22.2428 40.4387 22.2834 40.3286 22.3147L37.253 23.149L34.3 23.9927C32.3283 24.5427 30.3754 25.1614 28.4162 25.7489C26.4632 26.3676 24.5135 26.9895 22.5731 27.652C21.4788 28.0269 20.3875 28.4051 19.2994 28.7988L19.2051 29.3019C20.4158 29.0644 21.6234 28.8113 22.8279 28.5519C24.8311 28.1176 26.8249 27.6426 28.8155 27.1676C30.7999 26.6583 32.7906 26.1833 34.7623 25.6364L37.7279 24.8365L39.3789 24.3677C40.0519 24.1771 40.772 24.2052 41.4293 24.4458C42.4702 24.824 43.5143 25.1958 44.5583 25.5583C46.0301 26.0864 47.5144 26.577 48.9988 27.0707C50.4831 27.5613 51.9769 28.0363 53.4738 28.4957C54.3323 28.7582 55.194 29.0113 56.0588 29.255L56.1657 29.3019V29.2831Z" fill="#1c3027"/>
<path d="M29.2873 22.6834C31.2119 21.9928 33.1491 21.3304 35.058 20.6023L37.9323 19.5273L39.6431 18.8617C40.1431 18.668 40.706 18.6961 41.184 18.9398L42.1967 19.4586L44.332 20.5148C45.7503 21.2272 47.1874 21.9085 48.6215 22.5897C50.0586 23.2709 51.5021 23.9302 52.9581 24.5771C53.8355 24.9677 54.7192 25.3489 55.6092 25.7208L55.6249 25.7302V25.702L55.4897 24.7521L42.6118 16.5337C42.1715 16.2524 41.618 16.2087 41.14 16.4181L40.5456 16.6774L40.1746 16.818L37.3034 17.8992L34.4479 19.018C32.539 19.7492 30.6553 20.5491 28.7621 21.321C26.8784 22.1209 24.9978 22.9209 23.1298 23.7615C22.0732 24.2396 21.0197 24.7208 19.9693 25.2177L19.8718 25.7364C21.0763 25.3802 22.2713 25.0083 23.4663 24.6302C25.4192 24.0084 27.3564 23.349 29.2905 22.6865L29.2873 22.6834Z" fill="#1c3027"/>
<path d="M54.9488 21.2085L42.4042 11.1995C41.9514 10.8402 41.3319 10.7714 40.8098 11.0245L34.5926 14.0432C32.7466 14.9619 30.9321 15.9368 29.1049 16.8899C27.2904 17.868 25.4759 18.8492 23.6833 19.8679C22.6644 20.4491 21.6455 21.0335 20.636 21.6303L20.5354 22.1709C21.7304 21.6928 22.916 21.196 24.0984 20.696C25.9979 19.8867 27.8816 19.0429 29.7591 18.193C31.6271 17.3211 33.5045 16.4681 35.3568 15.5618C36.7751 14.8744 38.1934 14.1869 39.6054 13.4807C40.1306 13.2182 40.7564 13.2557 41.247 13.5838L42.0678 14.1338L44.1244 15.4681C45.4893 16.3649 46.873 17.2368 48.263 18.1024C49.6467 18.9742 51.0493 19.8179 52.455 20.6554C53.3292 21.171 54.2066 21.6803 55.0903 22.1803L54.9551 21.2022L54.9488 21.2085Z" fill="#1c3027"/>
<path d="M54.411 17.6836L42.291 5.79976C41.8224 5.3404 41.096 5.25291 40.5331 5.59352L34.7467 9.07774C32.9667 10.1839 31.2151 11.3339 29.4571 12.4714L26.8407 14.2119L24.2431 15.9837C23.2588 16.6712 22.2744 17.3586 21.2996 18.0617L21.1926 18.6305C22.3782 18.0211 23.5544 17.3961 24.7274 16.7649L27.4853 15.2494L30.2213 13.7025C32.0327 12.6495 33.8504 11.6058 35.6429 10.5214C36.9637 9.72459 38.2845 8.92775 39.5959 8.11841C40.118 7.79655 40.7909 7.84342 41.2595 8.23716C42.1369 8.97462 43.0206 9.70584 43.9137 10.4246L45.8949 12.037L47.8981 13.6213C49.2284 14.6806 50.5869 15.7118 51.9455 16.743C52.8072 17.3899 53.6783 18.0305 54.5525 18.6617L54.4173 17.6836H54.411Z" fill="#1c3027"/>
<path d="M53.8983 14.2619L41.901 0.453107C41.4513 -0.0656208 40.6745 -0.149992 40.1242 0.259365L34.9038 4.11858C33.1931 5.41227 31.5012 6.73409 29.8124 8.05591L27.2966 10.0621L24.8028 12.0995C23.8531 12.8932 22.9033 13.69 21.9599 14.4963L21.8467 15.0994C23.0228 14.3556 24.1864 13.5932 25.35 12.8307L28.0262 11.0339L30.6772 9.20586C32.432 7.97154 34.1868 6.73722 35.9227 5.47165C37.1964 4.53731 38.4732 3.60922 39.7405 2.66551C40.1713 2.34678 40.7689 2.39053 41.1431 2.77488C41.9953 3.64672 42.8476 4.51544 43.7155 5.37165L45.615 7.26532L47.5396 9.13087C48.8164 10.3808 50.1277 11.5995 51.436 12.8213C52.2851 13.6057 53.1436 14.3806 54.0116 15.1525L53.8952 14.2619H53.8983Z" fill="#1c3027"/>
<path d="M57.625 38.7734L42.4703 37.4922C42.0143 37.4547 41.5677 37.639 41.2721 37.989L40.8696 38.4703C40.5991 38.7921 40.1998 38.9734 39.7784 38.9702L37.1776 38.9484L31.495 38.9984C29.6018 39.0452 27.7055 39.064 25.8124 39.1452C22.9726 39.2421 20.1329 39.3733 17.2931 39.5858L17.2051 40.0608C20.0731 40.2764 22.9443 40.4108 25.8124 40.5077C27.7055 40.5889 29.6018 40.6077 31.495 40.6545L37.1776 40.7045L42.8602 40.6577C44.7534 40.6077 46.6497 40.592 48.5429 40.5108C51.6279 40.4077 54.7129 40.2546 57.7948 40.0077L57.6219 38.7765L57.625 38.7734Z" fill="#1c3027"/>
</g>

</svg>
