<svg width="229" height="95" viewBox="0 0 229 95" fill="none" xmlns="http://www.w3.org/2000/svg">
<g clip-path="url(#clip0_503_932)">
<path d="M228.65 28.17L114.34 0L0 28.17L114.34 7.78L228.65 28.17Z" fill="white"/>
<path d="M164.859 87.78L221.799 86.74L164.859 85.7V87.78Z" fill="white"/>
<path d="M63.7896 87.78V85.7L6.84961 86.74L63.7896 87.78Z" fill="white"/>
<path d="M80.3696 94.19V80.68H73.8496V78.96H90.1796V80.68H83.6796V94.19H80.3696Z" fill="white"/>
<path d="M109.33 94.19L107.75 90.46H99.3099L97.7299 94.19H94.1699L101 78.96H106.06L112.87 94.19H109.33ZM99.9699 88.88H107.09L103.99 81.55H103.07L99.9699 88.88Z" fill="white"/>
<path d="M120.41 94.41V92.73H121C121.98 92.73 122.68 92.58 123.17 92.27C123.65 91.96 124.02 91.52 124.28 90.94L124.69 90.14L117.35 78.96H120.64L126.02 87.6L130.49 78.96H133.78L126.93 91.27C126.61 91.82 126.21 92.35 125.75 92.85C125.32 93.31 124.77 93.69 124.1 93.98C123.43 94.27 122.53 94.41 121.45 94.41H120.43H120.41Z" fill="white"/>
<path d="M151.45 94.19V87.42H141.19V94.19H137.84V78.96H141.19V85.71H151.45V78.96H154.8V94.19H151.45Z" fill="white"/>
<path d="M53.4695 60.67L53.4395 60.77C53.3495 61.03 53.2295 61.3 53.0595 61.61C53.0095 61.74 52.9395 61.87 52.8695 61.99C51.4595 64.48 48.7995 66.03 45.9395 66.03H30.7895C30.7895 66.03 30.7495 66.03 30.7295 66.03H30.6495C30.1495 65.98 29.7095 65.71 29.4495 65.27C29.3295 65.07 29.2595 64.83 29.2395 64.59C29.2295 64.51 29.2295 64.45 29.2395 64.35V52.13C30.6095 52.13 41.3895 52.11 41.8595 52.15C43.4695 52.28 44.7795 53.53 44.9795 55.13C44.9895 55.19 44.9895 55.23 44.9895 55.28V55.42H46.9695V45.98H44.9495L44.9295 46.1C44.7095 47.74 43.3495 48.98 41.6895 49.05C41.4695 49.06 33.5395 49.05 29.2395 49.05V37.86C29.2295 37.77 29.2295 37.71 29.2395 37.61V37.54C29.3195 36.75 29.9895 36.13 30.7695 36.13H42.2395C42.6795 36.08 43.1495 36.08 43.6495 36.12C43.6495 36.12 43.6729 36.1233 43.7195 36.13C46.2595 36.37 48.5095 37.85 49.7495 40.1C49.8895 40.35 50.0095 40.58 50.0995 40.81L50.1395 40.9H51.5395V32.87H16.2695V34.62L16.4595 34.55C16.7595 34.45 17.0795 34.39 17.3895 34.39C18.4995 34.39 19.5095 35.04 19.9695 36.05C20.1395 36.4 20.2195 36.79 20.2195 37.22V65.07C20.2195 66.63 18.9495 67.9 17.3895 67.9H17.2395C16.9795 67.9 16.7695 67.91 16.4495 67.81L16.2695 67.76V69.28H53.2195L55.2195 60.68H53.4695V60.67Z" fill="white"/>
<path d="M147.899 60.67L147.869 60.77C147.779 61.04 147.659 61.3 147.499 61.61C147.439 61.74 147.369 61.87 147.299 61.99C145.889 64.48 143.229 66.03 140.369 66.03H125.219C125.219 66.03 125.179 66.03 125.159 66.03C125.129 66.03 125.099 66.03 125.079 66.03C124.579 65.99 124.139 65.71 123.879 65.27C123.759 65.07 123.689 64.84 123.669 64.6C123.669 64.52 123.669 64.45 123.669 64.35V52.13C125.039 52.13 135.819 52.11 136.289 52.15C137.889 52.28 139.209 53.53 139.409 55.13C139.409 55.18 139.409 55.22 139.409 55.28V55.42H141.389V45.98H139.359L139.339 46.1C139.119 47.74 137.759 48.98 136.099 49.05C135.879 49.07 127.949 49.05 123.649 49.05V37.86C123.649 37.78 123.649 37.71 123.649 37.61V37.54C123.719 36.75 124.389 36.13 125.179 36.13H136.649C137.089 36.08 137.569 36.08 138.069 36.13C138.099 36.13 138.099 36.13 138.139 36.13C140.679 36.37 142.929 37.85 144.169 40.1C144.309 40.34 144.429 40.58 144.519 40.81L144.559 40.9H145.969V32.87H110.699V34.62L110.889 34.55C111.189 34.44 111.509 34.39 111.819 34.39C112.929 34.39 113.939 35.04 114.389 36.05C114.559 36.4 114.649 36.79 114.649 37.22V65.07C114.649 66.63 113.379 67.9 111.819 67.9H111.669C111.409 67.9 111.199 67.9 110.879 67.82L110.699 67.77V69.29H147.649L149.649 60.69H147.899V60.67Z" fill="white"/>
<path d="M94.9205 34.53C92.3805 33.42 89.6505 32.86 86.8105 32.86H59.7305V34.61L59.9205 34.54C60.2205 34.44 60.5305 34.38 60.8505 34.38C61.9605 34.38 62.9705 35.03 63.4205 36.04C63.5905 36.39 63.6805 36.78 63.6805 37.21V65.06C63.6805 66.62 62.4105 67.89 60.8505 67.89H60.7205C60.4505 67.89 60.2405 67.89 59.9105 67.8L59.7305 67.76V69.27H86.8105C90.5505 69.27 94.1905 68.27 97.3105 66.37C102.87 62.99 106.19 57.27 106.19 51.07C106.19 43.98 101.77 37.48 94.9205 34.53ZM74.1905 66.02H74.1105C73.6105 65.97 73.1705 65.7 72.9105 65.26C72.8005 65.06 72.7205 64.84 72.7005 64.58L72.7405 64.56L72.6905 64.46V55.02C72.6905 49.96 72.6905 43.59 72.7005 37.71V37.53C72.7705 36.74 73.4505 36.12 74.2305 36.12H80.0705C89.0405 36.12 96.3405 42.83 96.3405 51.08C96.3405 59.33 89.0405 66.03 80.0705 66.03H74.2505C74.2505 66.03 74.2105 66.03 74.1905 66.03V66.02Z" fill="white"/>
<path d="M208.61 36.23C208.61 36.23 208.64 36.14 208.66 36.1L208.69 36.04C209.14 35.03 210.15 34.38 211.26 34.38C211.58 34.38 211.89 34.44 212.19 34.54L212.38 34.61V32.99C212.38 32.92 212.32 32.86 212.25 32.86H199.59C198.56 32.86 197.61 33.42 197.11 34.32C194.31 39.39 185.1 56 184.01 57.97C183.96 58.06 183.84 58.05 183.79 57.97L169.69 34.31C169.16 33.41 168.19 32.86 167.14 32.86H154.29C154.22 32.86 154.16 32.92 154.16 32.99V34.61L154.35 34.54C154.65 34.44 154.96 34.38 155.28 34.38C156.39 34.38 157.4 35.03 157.85 36.04C158.02 36.39 158.11 36.78 158.11 37.21V64.93C158.11 66.56 156.78 67.89 155.15 67.89C154.88 67.89 154.67 67.89 154.34 67.8L154.16 67.75V69.14C154.16 69.21 154.22 69.27 154.29 69.27H166.76C166.83 69.27 166.89 69.21 166.89 69.14V67.75L166.71 67.8C166.39 67.89 166.17 67.89 165.9 67.89C164.27 67.89 162.94 66.56 162.94 64.93V42.38C162.94 42.25 163.11 42.2 163.18 42.31L179.82 69.2L179.86 69.27H182.11C182.11 69.27 182.2 69.25 182.22 69.21L198.48 41.14C198.55 41.03 198.72 41.07 198.72 41.21V65.07C198.72 65.34 198.68 65.63 198.59 65.9C198.23 67.09 197.14 67.9 195.89 67.9H195.76C195.49 67.9 195.27 67.9 194.95 67.81L194.77 67.76V69.15C194.77 69.22 194.83 69.28 194.9 69.28H212.25C212.32 69.28 212.38 69.22 212.38 69.15V67.76L212.2 67.81C211.88 67.9 211.66 67.9 211.39 67.9H211.26C210.01 67.9 208.92 67.09 208.56 65.9C208.47 65.63 208.43 65.34 208.43 65.07V37.22C208.43 36.88 208.49 36.55 208.61 36.24V36.23Z" fill="white"/>
</g>
<defs>
<clipPath id="clip0_503_932">
<rect width="228.65" height="94.41" fill="white"/>
</clipPath>
</defs>
</svg>
