<svg width="21" height="22" viewBox="0 0 21 22" fill="none" xmlns="http://www.w3.org/2000/svg">
<path d="M20.6288 18.1976L12.9932 16.7926C12.8094 16.7587 12.6206 16.8056 12.4742 16.9187L12.1537 17.1677C12.0528 17.2453 11.9324 17.2922 11.8055 17.3035L10.3249 17.4215L8.69949 17.5751C7.61427 17.6705 6.53392 17.8015 5.45033 17.9179C4.36836 18.0521 3.28801 18.183 2.20767 18.3398C1.60242 18.4271 0.995536 18.5177 0.39191 18.6163L0.344727 18.8653C0.980893 18.8572 1.61543 18.8426 2.24997 18.8232C3.34008 18.7909 4.42856 18.7343 5.51704 18.6777C6.60389 18.6034 7.69237 18.5468 8.77596 18.453L10.4046 18.3237L11.7127 18.2008C11.8966 18.183 12.0804 18.1862 12.2643 18.2056C12.9704 18.2832 13.6798 18.3511 14.3876 18.4158C15.2043 18.4983 16.0227 18.5581 16.8411 18.6228C17.6595 18.6842 18.4795 18.7392 19.2996 18.7812C19.773 18.8071 20.2465 18.8265 20.7199 18.8442L20.6305 18.1976H20.6288Z" fill="#311B00" fill-opacity="0.5"/>
<path d="M20.4371 16.9947L20.4127 16.8314L20.359 16.4499L13 13.965C12.8308 13.9084 12.6421 13.9375 12.5005 14.0458L12.1279 14.3271C12.0596 14.3789 11.9782 14.4144 11.8936 14.429L10.348 14.6958L8.77137 14.9916C7.71868 15.1808 6.67251 15.4071 5.6247 15.6173C4.57853 15.8452 3.53398 16.0716 2.49268 16.3206C1.90695 16.4612 1.32123 16.6051 0.737125 16.7555L0.689941 17.0093C1.32123 16.9462 1.95088 16.8735 2.57892 16.7975C3.64299 16.6698 4.70218 16.5178 5.76137 16.3674C6.81731 16.1993 7.8765 16.0473 8.92919 15.8582L10.5107 15.5866L11.5568 15.3909C11.8481 15.336 12.1474 15.3441 12.4354 15.412C13.0456 15.5542 13.6573 15.6884 14.2691 15.8194C15.0582 15.9972 15.8522 16.1524 16.6445 16.3141C17.4385 16.4709 18.2341 16.6213 19.0314 16.7603C19.4642 16.8363 19.8986 16.9074 20.333 16.9753L20.4371 17.0077V16.9915V16.9947Z" fill="#311B00" fill-opacity="0.5"/>
<path d="M20.1571 15.1501L20.1424 15.0563L20.0822 14.6246L13.1414 11.3508C12.8957 11.236 12.6109 11.2392 12.3701 11.3605L12.1277 11.4817C12.0757 11.5076 12.0203 11.5286 11.9634 11.5448L10.3722 11.9764L8.84438 12.4129C7.82424 12.6975 6.81386 13.0176 5.80022 13.3215C4.78984 13.6417 3.78108 13.9634 2.77721 14.3061C2.21101 14.5001 1.64643 14.6958 1.08348 14.8995L1.03467 15.1598C1.66107 15.0369 2.28585 14.9059 2.909 14.7717C3.94541 14.547 4.97695 14.3013 6.00685 14.0555C7.0335 13.792 8.06341 13.5463 9.08356 13.2633L10.6178 12.8495L11.472 12.607C11.8202 12.5083 12.1928 12.5229 12.5328 12.6474C13.0714 12.843 13.6116 13.0354 14.1517 13.2229C14.9132 13.4961 15.6811 13.75 16.4491 14.0054C17.217 14.2592 17.9899 14.505 18.7643 14.7426C19.2085 14.8784 19.6543 15.0094 20.1018 15.1355L20.1571 15.1598V15.1501Z" fill="#311B00" fill-opacity="0.5"/>
<path d="M6.25119 11.7355C7.24693 11.3782 8.24918 11.0355 9.23678 10.6588L10.7239 10.1027L11.609 9.75829C11.8677 9.65806 12.1589 9.67261 12.4062 9.79871L12.9301 10.0671L14.0349 10.6135C14.7687 10.9822 15.5122 11.3346 16.2541 11.687C16.9977 12.0395 17.7445 12.3806 18.4978 12.7153C18.9517 12.9174 19.4089 13.1146 19.8694 13.307L19.8775 13.3118V13.2973L19.8076 12.8058L13.1449 8.55384C12.9171 8.40833 12.6308 8.3857 12.3834 8.49402L12.0759 8.62821L11.8839 8.70096L10.3985 9.26035L8.92114 9.83913C7.93354 10.2174 6.95895 10.6313 5.97948 11.0307C5.00489 11.4445 4.03193 11.8584 3.06548 12.2933C2.5188 12.5407 1.97375 12.7896 1.43032 13.0467L1.37988 13.3151C2.00303 13.1308 2.6213 12.9384 3.23957 12.7428C4.24995 12.421 5.2522 12.0799 6.25282 11.7372L6.25119 11.7355Z" fill="#311B00" fill-opacity="0.5"/>
<path d="M19.5277 10.9725L13.0375 5.79411C12.8032 5.60818 12.4827 5.57262 12.2126 5.70357L8.99594 7.26532C8.04088 7.74064 7.10209 8.24505 6.15679 8.73815C5.21799 9.24418 4.2792 9.75183 3.35179 10.2789C2.82464 10.5796 2.29748 10.8819 1.77521 11.1907L1.72314 11.4704C2.34141 11.223 2.9548 10.966 3.56656 10.7073C4.54928 10.2886 5.52387 9.85207 6.4952 9.41232C7.46166 8.96126 8.43299 8.51989 9.39131 8.05105C10.1251 7.69537 10.8589 7.33969 11.5894 6.97431C11.8611 6.83851 12.1849 6.85791 12.4387 7.02766L12.8634 7.31221L13.9275 8.00254C14.6336 8.46654 15.3495 8.91761 16.0686 9.36544C16.7845 9.8165 17.5102 10.253 18.2374 10.6863C18.6898 10.9531 19.1437 11.2166 19.6009 11.4753L19.5309 10.9692L19.5277 10.9725Z" fill="#311B00" fill-opacity="0.5"/>
<path d="M19.2492 9.1488L12.9787 3.00042C12.7363 2.76276 12.3604 2.71749 12.0692 2.89371L9.07546 4.69636C8.15457 5.26867 7.24831 5.86363 6.33881 6.45211L4.98512 7.35262L3.6412 8.26931C3.13194 8.62498 2.62269 8.98066 2.11831 9.34442L2.06299 9.63867C2.67638 9.32341 3.28488 9.00006 3.89176 8.67348L5.31866 7.88938L6.73417 7.0891C7.67134 6.54427 8.61176 6.00428 9.53916 5.44328C10.2225 5.03102 10.9059 4.61875 11.5843 4.20002C11.8544 4.0335 12.2026 4.05775 12.445 4.26146C12.899 4.643 13.3562 5.02132 13.8182 5.39316L14.8433 6.22739L15.8797 7.04706C16.5679 7.59513 17.2708 8.12865 17.9737 8.66217C18.4195 8.99683 18.8701 9.32826 19.3225 9.65483L19.2525 9.1488H19.2492Z" fill="#311B00" fill-opacity="0.5"/>
<path d="M18.984 7.37849L12.7769 0.23421C12.5442 -0.0341655 12.1424 -0.0778169 11.8576 0.133973L9.15677 2.13062C8.27167 2.79994 7.39633 3.48382 6.52262 4.16769L5.221 5.20562L3.93077 6.25972C3.43941 6.67037 2.94805 7.08263 2.45994 7.49974L2.40137 7.81177C3.00987 7.42699 3.61187 7.03251 4.21387 6.63803L5.59847 5.70842L6.97005 4.76264C7.87793 4.12404 8.78581 3.48543 9.68393 2.83066C10.3429 2.34726 11.0034 1.8671 11.6591 1.37885C11.882 1.21394 12.1912 1.23658 12.3848 1.43543C12.8257 1.8865 13.2666 2.33594 13.7157 2.77893L14.6984 3.75866L15.6942 4.72384C16.3547 5.37053 17.0332 6.00105 17.71 6.63318C18.1493 7.03898 18.5935 7.43993 19.0426 7.83926L18.9824 7.37849H18.984Z" fill="#311B00" fill-opacity="0.5"/>
<path d="M20.9121 20.06L13.0715 19.3972C12.8356 19.3778 12.6046 19.4732 12.4516 19.6542L12.2434 19.9032C12.1034 20.0697 11.8968 20.1635 11.6788 20.1619L10.3332 20.1506L7.3932 20.1764C6.41373 20.2007 5.43263 20.2104 4.45317 20.2524C2.98396 20.3025 1.51476 20.3704 0.0455571 20.4804L0 20.7261C1.48385 20.8377 2.96932 20.9072 4.45317 20.9573C5.43263 20.9993 6.41373 21.009 7.3932 21.0333L10.3332 21.0592L13.2733 21.0349C14.2527 21.009 15.2338 21.001 16.2133 20.9589C17.8094 20.9056 19.4055 20.8264 21 20.6986L20.9105 20.0616L20.9121 20.06Z" fill="#311B00" fill-opacity="0.5"/>
</svg>
