<svg width="801" height="638" viewBox="0 0 801 638" fill="none" xmlns="http://www.w3.org/2000/svg">
<g clip-path="url(#clip0_387_543)">
<path d="M26.6983 91.9526C27.2114 89.4083 25.4087 80.4186 28.0655 79.5474L66.3954 78.6595L150.543 9.24765C153.064 -4.23685 160.388 -0.421791 169.363 4.7334L464.545 85.8929L532.594 86.2647L556.904 114.532C561.993 117.432 570.668 111.583 566.597 124.976L420.228 125.456L418.974 126.704C418.708 136.388 419.016 145.641 406.35 143.707L402.958 183.875C403.383 185.398 408.427 182.399 408.028 191.455C407.831 195.914 406.211 211.424 403.56 214.154C400.631 217.167 397.426 215.852 398.79 223.099C414.065 228.365 414.296 249.122 398.099 252.929L398 259.518C425.705 260.839 442.736 277.836 447.803 304.439C455.027 342.379 446.743 392.69 400.077 396.403C349.012 400.465 333.664 357.517 337.941 314.203C340.98 283.435 356.824 260.65 389.666 259.518L389.533 252.954C377.86 250.004 374.332 232.888 386.318 227.796C386.665 232.677 384.41 240.035 390.961 241.092C394.896 241.728 400.213 242.016 398.679 236.733C397.634 233.129 392.073 233.548 390.919 231.956C388.67 228.851 390.356 217.936 389.563 217.031C383.983 216.093 382.006 214.073 380.852 208.638C380.078 204.995 378.071 188.092 379.574 185.767C380.356 184.56 382.544 184.774 382.868 184.271C383.834 182.773 382.2 177.793 382.117 175.651C381.349 155.729 380.456 163.601 379.651 143.693C364.723 146.343 367.934 135.747 366.298 125.334H157.704L157.709 126.16C158.744 125.841 160.125 127.004 160.624 127.004H187.323C190.545 129.224 203.793 143.049 204.046 145.744L199.888 177.138C197.911 182.03 194.58 181.067 190.187 181.625C188.163 183.015 190.065 191.258 190.285 193.738C193.099 194.296 200.052 192.448 201.511 195.448C202.215 196.899 202.24 204.909 201.755 206.551C200.593 210.494 191.813 208.241 188.573 208.807V561.493L189.824 562.745H203.591V591.126H235.714C235.861 591.126 237.8 593.065 237.8 593.213V617.002C241.887 617.601 267.979 614.202 268.703 617.562L269.507 625.351H445.559V608.237C445.559 607.962 446.666 606.969 446.394 606.15H501.045C503.871 606.15 502.295 610.448 502.295 610.742V625.351H508.971V607.405C508.971 604.577 513.266 606.153 513.56 606.153H578.642L579.892 607.405V625.351H585.733V607.405L586.984 606.153H670.837V626.189H676.678V605.737L677.929 604.486H712.972L714.223 605.737V627.024L718.33 627.534L720.028 626.621C718.61 619.779 718.802 611.414 720.061 604.486H766.369L767.62 605.737V628.694C771.905 628.852 776.256 628.466 780.544 628.702C785.447 628.971 795.251 629.352 799.555 630.55C800.248 630.744 800.986 631.252 800.994 632.023C791.709 633.378 782.341 633.25 773.009 633.666C727.99 635.675 683.023 635.686 637.841 636.172C455.587 638.128 272.657 639.335 90.5592 635.336C60.3496 634.673 30.0457 635.325 -0.00585938 632.023L2.90889 630.356C21.8755 628.65 41.0141 628.256 60.0723 627.862C60.6519 624.285 58.2197 617.948 62.5294 616.547C68.9413 614.46 84.5689 616.827 91.7739 617.007V591.964C92.592 592.236 93.5849 591.129 93.8594 591.129H125.148V563.999C126.374 561.358 135.786 563.76 136.008 562.265L135.997 208.802L126.343 208.025V194.562L136.829 193.786C137.298 193.317 136.535 181.924 135.786 180.626C134.802 178.919 129.316 177.121 129.316 171.661V125.331H77.1669L75.9162 126.582V149.12L74.6654 150.372H26.6983V126.582L25.4475 125.331H13.3504V91.9415H26.7011L26.6983 91.9526ZM213.184 86.1093H444.721L169.751 9.48627C167.291 13.0738 165.083 15.9178 166.057 20.5707L182.736 116.161C193.651 107.166 202.665 95.7427 213.181 86.1093H213.184ZM152.687 15.1575L73.4285 79.4198L102.224 91.1063C102.995 91.3006 101.705 86.8668 105.574 86.1315L140.895 85.9956L152.687 15.1575ZM165.197 63.5658C163.902 52.5645 161.83 41.6687 160.064 30.7341C159.842 29.3579 159.762 25.7093 158.538 25.1766L155.191 50.5973L165.197 63.5686V63.5658ZM148.527 88.612C155.016 83.5428 159.47 76.4454 165.15 70.5494L153.94 56.0605L148.53 88.612H148.527ZM174.377 113.655L167.297 74.4255L148.557 95.6178L174.377 113.655ZM248.64 91.9554C242.952 91.7501 237.195 92.2051 231.504 91.9859C229.247 91.8999 227.239 91.0009 224.884 91.0814C223.6 91.1258 222.449 90.5265 222.763 92.3771L237.378 110.301L248.638 91.9554H248.64ZM287.858 91.9526H263.245C262.906 91.9526 261.78 89.8078 262.005 92.3549L276.595 110.304L287.861 91.9526H287.858ZM327.91 91.9526H302.462C302.124 91.9526 301 89.8051 301.22 92.3549L315.813 110.301L327.91 91.9498V91.9526ZM444.716 91.1202C436.942 92.9098 428.822 91.3727 420.929 91.9498C419.687 92.0414 418.514 91.3006 418.863 93.1901L432.624 110.298L444.719 91.1202H444.716ZM483.933 91.1202L465.965 91.0814L457.248 92.3549L471.842 110.301L483.936 91.1202H483.933ZM523.148 91.1202C514.844 93.5119 506.164 89.9826 497.689 91.1147C496.532 91.2701 496.244 90.6541 496.463 92.3549L511.056 110.301L523.148 91.1202ZM136.003 91.9526H108.469V113.655H136.003V91.9526ZM367.124 91.9526H340.426L355.027 110.301L367.124 91.9526ZM405.507 91.9526H379.64L394.647 110.318L405.507 91.9526ZM232.791 115.326L215.596 93.6617L194.411 115.326H232.794H232.791ZM272.006 115.326L254.908 94.4469L241.968 115.326H272.006ZM311.223 115.326L294.952 94.4719C293.723 94.4719 282.76 112.399 282.02 115.326H311.223ZM350.437 115.326L334.166 94.4719L321.234 115.326H350.437ZM387.98 113.65L373.381 94.4719L360.452 115.32C364.271 116.516 367.063 114.024 370 113.611C372.779 113.22 387.292 114.23 387.98 113.65ZM413 94.4608L410.965 95.3265L400.504 112.817C401.053 113.295 412.629 112.465 415.058 112.865C417.268 113.228 418.286 114.94 420.142 115.292C422.76 115.786 426.129 115.034 428.866 115.32L412.998 94.4636L413 94.4608ZM438.046 115.326H467.249L451.804 94.4469L448.368 97.6877L438.046 115.326ZM506.466 115.326C504.12 112.34 491.793 94.4303 489.372 94.4442L476.429 115.326H506.466ZM515.643 115.326H547.35L530.236 94.4469C527.424 94.4275 518.308 112.465 515.643 115.326ZM169.377 115.326C169.266 114.443 168.32 113.811 167.649 113.298C165.499 111.649 148.568 100.534 147.273 100.287C145.473 99.9434 146.225 100.64 146.039 101.561C145.146 106.011 144.672 110.795 144.342 115.329H169.374L169.377 115.326ZM196.078 160.402C196.683 155.896 198.743 149.717 197.373 145.327C197.11 144.481 186.535 132.018 185.65 132.018H168.963L167.713 133.269V160.399H196.081L196.078 160.402ZM402.168 143.707H383.811L387.633 185.273C390.134 184.677 398.679 186.516 399.55 183.855L402.171 143.707H402.168ZM174.385 208.818H146.852V228.854L174.385 208.818ZM178.556 257.235V214.662L149.353 236.351L178.556 257.235ZM146.849 284.781L175.214 264.296C175.506 263.098 173.428 261.755 172.641 261.061C166.933 256.05 156.933 249.191 150.432 244.882C149.27 244.114 148.372 242.84 146.849 243.043V284.781ZM178.556 312.327V270.589L149.37 291.04L178.556 312.327ZM146.849 339.876L175.217 318.598L146.849 298.138V339.876ZM390.268 285.599C368.006 289.023 369.82 333.592 373.353 349.701C379.016 375.518 406.425 377.943 413.439 352.181C417.205 338.35 417.765 305.737 409.209 293.796C405.058 288 397.367 284.509 390.27 285.602L390.268 285.599ZM178.556 367.422V325.684L149.353 345.733L178.556 367.422ZM146.849 394.971L175.198 374.52L146.849 353.233V394.971ZM178.556 423.352V380.779L149.37 402.066L178.556 423.352ZM146.849 408.325V450.063L175.228 430.436C175.278 429.087 173.977 428.344 173.104 427.55C165.45 420.605 154.858 415.051 146.849 408.325ZM178.556 436.709L150.191 456.359L152.301 459.222L178.556 478.447V436.709ZM146.849 463.42V505.158L175.228 485.531C175.278 484.182 173.977 483.439 173.104 482.645C165.508 475.756 154.778 470.168 146.849 463.42ZM178.556 491.801L149.37 512.253L178.556 533.539V491.801ZM146.849 518.515V561.088L175.228 539.81L146.849 518.515ZM178.556 546.896L156.863 562.756H178.556V546.896Z" fill="#311B00"/>
<path d="M313.724 339.654H329.16L330.411 340.905V365.949L329.16 367.2H314.975L313.904 368.451C313.879 368.79 314.559 369.079 314.559 369.287V392.66L313.308 393.911H285.775C285.306 393.911 282.02 395.065 282.02 392.66V367.2H226.95V345.078L277.81 261.796C278.703 260.573 280.209 260.498 281.587 260.351C285.129 259.973 311.253 259.968 312.895 260.764C313.594 261.103 314.173 261.86 314.393 262.606L313.727 339.654H313.724ZM282.017 339.654V302.924L259.489 339.654H282.017Z" fill="#311B00"/>
<path d="M540.675 339.654H556.111L557.362 340.905V365.114C557.362 365.388 556.256 366.382 556.527 367.2H541.926L540.675 368.451V393.911L511.017 394.402C510.407 394.308 508.968 392.857 508.968 392.66V367.2H453.898V345.078L503.577 262.887C504.098 262.201 506.35 260.351 506.882 260.351H539.424L540.675 261.602V339.651V339.654ZM508.968 339.654V302.089L486.44 339.654H508.968Z" fill="#311B00"/>
<path d="M670.838 543.559V568.183C670.838 568.33 668.899 570.27 668.752 570.27H586.984L585.733 569.018V544.81L586.984 543.559H670.838Z" fill="#311B00"/>
<path d="M586.984 481.785H669.587L670.838 483.036V506.41C670.838 507.902 667.535 508.424 666.298 508.546C655.08 509.67 643.185 507.755 632.072 507.628C618.824 507.472 601.147 509.179 588.609 507.705C587.394 507.564 586.463 507.603 585.73 506.41V483.036L586.981 481.785H586.984Z" fill="#311B00"/>
<path d="M624.113 511.837V537.296C622.51 539.011 620.102 539.23 617.887 539.416C600.972 540.837 582.122 539.544 565.321 539.422C561.591 539.394 548.496 540.179 546.493 538.154C544.266 535.898 546.485 525.859 546.579 522.258C546.674 518.682 544.66 515.555 546.516 511.837H624.113Z" fill="#311B00"/>
<path d="M550.271 574.443H623.697L624.948 575.694V599.902C624.948 600.091 622.341 601.989 622.028 601.989H550.271L549.021 600.737V575.694L550.271 574.443Z" fill="#311B00"/>
<path d="M476.01 574.443H541.926L543.177 575.694V600.737L541.926 601.989H475.176L473.925 600.737V576.529C473.925 576.26 475.639 575.003 476.01 574.443Z" fill="#311B00"/>
<path d="M510.638 570.27V543.559C528.672 542.404 547.148 542.346 565.322 542.685C567.008 542.715 568.533 543.425 570.205 543.478C571.611 543.523 579.89 541.231 579.89 544.813V569.021C579.89 569.443 577.668 570.822 576.867 570.869L510.635 570.275L510.638 570.27Z" fill="#311B00"/>
<path d="M688.359 539.383H632.874L631.623 538.131V513.923C631.623 512.863 634.233 511.942 635.336 511.795C645.293 510.452 669.04 511.088 679.634 511.801C682.541 511.998 685.486 512.841 688.418 513.033C689.649 513.859 689.691 539.383 688.362 539.383H688.359Z" fill="#311B00"/>
<path d="M634.543 574.443H688.778L690.028 575.694V599.902C687.813 601.206 681.556 601.972 678.763 601.989C671.924 602.03 664.833 601.941 657.938 602.022C653.948 602.069 636.304 602.638 634.121 601.575C632.743 600.904 632.59 599.611 632.419 598.271C632.066 595.541 632.147 577.705 632.887 576.124C633.19 575.477 634.044 574.989 634.543 574.443Z" fill="#311B00"/>
<path d="M718.396 544.391C719.215 544.663 720.207 543.556 720.482 543.556H765.537C770.36 550.345 766.075 560.342 766.793 568.186C766.749 569.19 766.244 569.668 765.476 570.209C761.94 572.697 745.547 570.408 740.541 570.236C734.74 570.036 725.632 571.213 720.482 570.27C719.547 570.098 718.921 569.845 718.396 569.018V544.394V544.391Z" fill="#311B00"/>
<path d="M694.2 514.758C694.993 512.181 714.459 513.182 717.945 511.803L739.261 513.085C740.65 513.857 740.781 514.969 740.964 516.39C741.327 519.209 741.385 534.991 740.758 537.13C740.001 539.71 732.464 540.024 729.654 540.212C721.664 540.745 713.25 540.509 705.454 540.226C701.832 540.093 696.904 541.222 694.2 538.969V514.761V514.758Z" fill="#311B00"/>
<path d="M714.226 569.853C713.078 573.954 702.009 571.144 698.826 571.071C695.459 570.996 677.832 571.804 676.797 570.153C676.409 564.781 676.883 559.346 676.714 553.961C676.609 550.584 674.26 546.25 677.097 543.561H706.3C707.451 543.561 710.856 545.14 712.85 544.521L714.229 545.648V569.856L714.226 569.853Z" fill="#311B00"/>
<path d="M731.747 598.235C731.517 599.056 729.787 600.116 728.808 600.302C723.186 601.367 713.152 601.786 707.168 602.025C703.609 602.166 700.001 601.853 696.443 602.019C695.891 601.85 695.037 600.132 695.037 599.902V576.113C703.989 574.282 713.125 574.759 722.188 574.479C725.377 574.379 729.282 572.092 731.747 574.861V598.235Z" fill="#311B00"/>
<path d="M675.962 481.904L706.377 484.207C708.599 486.802 707.121 507.522 705.961 508.993C705.418 509.681 704.627 510.03 703.77 510.141C698.798 509.326 677.94 510.13 674.959 508.133C673.131 506.909 674.981 502.658 675.045 500.6C675.136 497.575 674.329 482.925 675.962 481.904Z" fill="#311B00"/>
<path d="M735.084 574.861C735.816 573.671 736.748 573.707 737.963 573.566C746.294 572.592 756.061 575.586 764.681 574.468C765.718 574.601 766.75 575.156 767.213 576.11C768.322 578.391 768.2 599.43 765.967 600.748C763.172 602.399 752.556 600.526 748.887 600.288C746.374 600.124 735.084 601.378 735.084 598.235V574.861Z" fill="#311B00"/>
<path d="M300.385 447.438C298.247 447.438 296.267 447.044 294.445 446.259C292.623 445.474 291.034 444.309 289.683 442.769C288.332 441.229 287.278 439.364 286.524 437.181C285.77 434.994 285.393 432.52 285.393 429.75C285.393 426.981 285.778 424.506 286.549 422.32C287.32 420.134 288.388 418.272 289.755 416.732C291.122 415.192 292.725 414.013 294.564 413.194C296.403 412.376 298.405 411.968 300.576 411.968C302.62 411.968 304.451 412.384 306.068 413.217C307.687 414.049 308.999 415.048 310.006 416.21L307.601 418.852C306.722 417.909 305.693 417.17 304.515 416.635C303.336 416.099 302.055 415.833 300.674 415.833C298.535 415.833 296.658 416.391 295.041 417.509C293.421 418.624 292.165 420.214 291.269 422.273C290.373 424.332 289.924 426.793 289.924 429.656C289.924 432.52 290.365 434.947 291.244 437.037C292.123 439.129 293.374 440.741 294.994 441.87C296.613 443.002 298.508 443.568 300.674 443.568C302.276 443.568 303.713 443.268 304.989 442.672C306.262 442.075 307.432 441.193 308.503 440.03L310.766 442.53C309.382 444.134 307.859 445.352 306.192 446.184C304.526 447.017 302.593 447.433 300.393 447.433L300.385 447.438Z" fill="#1D1D1B"/>
<path d="M324.045 446.825V416.308H313.72V412.581H338.754V416.308H328.429V446.825H324.045Z" fill="#1D1D1B"/>
<path d="M355.142 447.439C352.282 447.439 349.75 446.714 347.551 445.269C345.352 443.823 343.63 441.762 342.387 439.09C341.145 436.418 340.526 433.241 340.526 429.562C340.526 425.883 341.148 422.778 342.387 420.15C343.63 417.526 345.349 415.503 347.551 414.088C349.75 412.673 352.282 411.965 355.142 411.965C358.001 411.965 360.533 412.673 362.732 414.088C364.931 415.503 366.654 417.523 367.896 420.15C369.139 422.775 369.757 425.913 369.757 429.562C369.757 433.21 369.136 436.418 367.896 439.09C366.654 441.762 364.934 443.823 362.732 445.269C360.533 446.714 358.001 447.439 355.142 447.439ZM355.142 443.571C357.186 443.571 358.961 442.996 360.469 441.848C361.978 440.699 363.148 439.073 363.983 436.967C364.815 434.861 365.231 432.392 365.231 429.562C365.231 426.732 364.815 424.287 363.983 422.226C363.151 420.167 361.978 418.586 360.469 417.487C358.961 416.385 357.186 415.836 355.142 415.836C353.098 415.836 351.362 416.385 349.839 417.487C348.314 418.588 347.135 420.167 346.303 422.226C345.471 424.285 345.052 426.732 345.052 429.562C345.052 432.392 345.468 434.861 346.303 436.967C347.135 439.073 348.314 440.702 349.839 441.848C351.364 442.996 353.131 443.571 355.142 443.571Z" fill="#1D1D1B"/>
<path d="M375.431 446.825V412.581H385.19C387.766 412.581 390.015 412.903 391.932 413.547C393.848 414.191 395.349 415.253 396.433 416.732C397.517 418.211 398.061 420.192 398.061 422.675C398.061 425.159 397.526 427.045 396.458 428.618C395.39 430.192 393.912 431.354 392.026 432.109C390.14 432.864 387.941 433.241 385.426 433.241H379.815V446.825H375.431ZM379.815 429.703H384.907C387.861 429.703 390.063 429.137 391.508 428.005C392.952 426.873 393.676 425.098 393.676 422.675C393.676 420.253 392.93 418.525 391.435 417.581C389.943 416.638 387.686 416.166 384.669 416.166H379.813V429.703H379.815Z" fill="#1D1D1B"/>
<path d="M403.105 446.825V412.581H407.49V446.825H403.105Z" fill="#1D1D1B"/>
<path d="M414.854 446.825V412.581H419.238V426.92H435.126V412.581H439.511V446.825H435.126V430.741H419.238V446.825H414.854Z" fill="#1D1D1B"/>
<path d="M446.918 446.825V412.581H451.303V427.062H457.243L461.675 418.336C462.554 416.607 463.38 415.292 464.149 414.396C464.919 413.5 465.704 412.895 466.506 412.581C467.307 412.268 468.211 412.11 469.218 412.11C469.595 412.11 469.956 412.132 470.302 412.179C470.649 412.226 470.946 412.312 471.198 412.44L470.491 416.449C470.302 416.385 470.106 416.346 469.903 416.333C469.698 416.316 469.487 416.31 469.268 416.31C468.797 416.31 468.356 416.405 467.948 416.593C467.54 416.782 467.108 417.168 466.653 417.75C466.198 418.333 465.638 419.251 464.978 420.508L460.687 428.621L472.285 446.828H467.429L457.246 430.649H451.305V446.828H446.921L446.918 446.825Z" fill="#1D1D1B"/>
<path d="M480.595 447.439C479.84 447.439 479.202 447.391 478.687 447.297C478.168 447.203 477.671 447.078 477.2 446.92L478.143 443.005C478.426 443.132 478.731 443.224 479.061 443.288C479.391 443.352 479.807 443.382 480.309 443.382C481.41 443.382 482.297 443.155 482.971 442.7C483.648 442.245 484.219 441.543 484.694 440.599L485.448 438.807L473.803 412.581H478.423L484.788 427.769L487.381 434.562H487.617L490.021 427.769L495.867 412.581H500.299L489.078 440.599C488.26 442.738 487.192 444.411 485.872 445.624C484.552 446.834 482.791 447.439 480.592 447.439H480.595Z" fill="#1D1D1B"/>
<path d="M227.447 499.82V465.199H235.274V478.5H247.202V465.199H255.075V499.82H247.202V485.387H235.274V499.82H227.447Z" fill="#1D1D1B"/>
<path d="M261.858 499.82V465.199H283.546V471.802H269.685V478.736H281.471V485.292H269.685V493.216H284.064V499.82H261.858Z" fill="#1D1D1B"/>
<path d="M312.493 500.48C309.665 500.48 307.149 500.078 304.95 499.279C302.751 498.477 300.724 497.117 298.868 495.197L303.017 490.339C304.307 491.502 305.688 492.342 307.166 492.861C308.644 493.38 310.089 493.638 311.503 493.638C312.699 493.638 313.741 493.458 314.637 493.094C315.533 492.734 316.24 492.206 316.759 491.516C317.277 490.825 317.535 489.99 317.535 489.016C317.535 487.57 317.025 486.516 316.004 485.855C314.984 485.195 313.42 484.865 311.312 484.865H306.644V479.063H310.322C312.272 479.063 313.686 478.733 314.565 478.073C315.444 477.412 315.885 476.452 315.885 475.195C315.885 473.939 315.43 472.987 314.518 472.34C313.605 471.697 312.443 471.375 311.029 471.375C309.615 471.375 308.444 471.602 307.33 472.057C306.215 472.512 305.075 473.151 303.91 473.966L299.997 469.155C301.442 467.74 303.125 466.625 305.042 465.806C306.958 464.988 309.049 464.58 311.312 464.58C313.952 464.58 316.185 464.957 318.007 465.712C319.829 466.467 321.213 467.535 322.156 468.919C323.099 470.304 323.57 471.955 323.57 473.872C323.57 475.57 323.193 477.079 322.438 478.4C321.684 479.721 320.6 480.695 319.185 481.325V481.513C320.317 481.827 321.329 482.362 322.225 483.117C323.121 483.872 323.845 484.798 324.394 485.9C324.943 487.001 325.22 488.242 325.22 489.626C325.22 491.954 324.632 493.927 323.451 495.544C322.272 497.165 320.716 498.391 318.783 499.223C316.85 500.056 314.754 500.472 312.491 500.472L312.493 500.48Z" fill="#1D1D1B"/>
<path d="M330.01 499.82V465.199H337.836V478.5H349.764V465.199H357.637V499.82H349.764V485.387H337.836V499.82H330.01Z" fill="#1D1D1B"/>
<path d="M361.035 499.82L371.926 465.199H381.308L392.151 499.82H383.854L379.328 482.321C378.887 480.592 378.432 478.752 377.96 476.802C377.489 474.851 377.018 472.981 376.546 471.189H376.357C375.917 473.012 375.47 474.893 375.012 476.827C374.558 478.761 374.094 480.592 373.62 482.321L369.094 499.82H361.032H361.035ZM368.248 491.613V485.528H384.891V491.613H368.248Z" fill="#1D1D1B"/>
<path d="M395.546 499.82V465.199H403.278V477.368C403.278 478.719 403.222 480.143 403.114 481.635C403.003 483.128 402.87 484.59 402.712 486.022C402.554 487.454 402.413 488.783 402.288 490.009H402.476L405.871 482.368L414.97 465.199H423.268V499.82H415.489V487.603C415.489 485.528 415.614 483.389 415.866 481.189C416.118 478.988 416.337 476.943 416.526 475.057H416.29L412.896 482.604L403.844 499.82H395.546ZM409.595 462.274C407.332 462.274 405.524 461.961 404.174 461.331C402.823 460.701 401.825 459.838 401.181 458.737C400.538 457.635 400.183 456.395 400.119 455.01H406.72C406.783 455.671 406.916 456.259 407.119 456.781C407.324 457.299 407.638 457.693 408.062 457.96C408.486 458.226 408.996 458.362 409.595 458.362C410.225 458.362 410.744 458.229 411.151 457.96C411.559 457.693 411.867 457.299 412.069 456.781C412.274 456.262 412.391 455.671 412.421 455.01H419.069C419.005 456.395 418.653 457.635 418.007 458.737C417.363 459.838 416.365 460.701 415.014 461.331C413.664 461.961 411.856 462.274 409.593 462.274H409.595Z" fill="#1D1D1B"/>
<path d="M434.813 499.82V509.772H427.788L427.128 498.169V493.216H461.356V498.169L460.696 509.772H453.671V499.82H434.813ZM449.239 497.462V471.802H442.733C442.481 473.187 442.254 474.405 442.051 475.459C441.846 476.513 441.652 477.565 441.463 478.619C441.275 479.674 441.039 480.908 440.756 482.321C440.254 484.804 439.663 487.015 438.987 488.946C438.31 490.88 437.542 492.514 436.676 493.852C435.811 495.189 434.821 496.227 433.706 496.965C432.591 497.703 431.324 498.105 429.91 498.166L428.731 493.214C429.266 492.994 429.807 492.481 430.356 491.679C430.905 490.877 431.465 489.634 432.031 487.953C432.597 486.272 433.163 484.03 433.728 481.23C434.011 479.721 434.277 478.336 434.53 477.079C434.782 475.823 435.01 474.605 435.215 473.425C435.42 472.246 435.639 470.989 435.875 469.652C436.111 468.315 436.355 466.83 436.604 465.193H457.113V497.456H449.239V497.462Z" fill="#1D1D1B"/>
<path d="M465.336 499.82V465.199H487.023V471.802H473.162V478.736H484.949V485.292H473.162V493.216H487.542V499.82H465.336Z" fill="#1D1D1B"/>
<path d="M492.978 499.82V465.199H500.804V478.5H512.732V465.199H520.605V499.82H512.732V485.387H500.804V499.82H492.978Z" fill="#1D1D1B"/>
<path d="M541.51 500.48C538.429 500.48 535.703 499.756 533.329 498.311C530.955 496.865 529.111 494.781 527.788 492.062C526.468 489.343 525.808 486.111 525.808 482.368C525.808 478.625 526.468 475.387 527.788 472.745C529.108 470.104 530.955 468.084 533.329 466.686C535.703 465.287 538.429 464.585 541.51 464.585C544.591 464.585 547.365 465.285 549.738 466.686C552.112 468.084 553.957 470.112 555.277 472.77C556.597 475.429 557.257 478.628 557.257 482.368C557.257 486.108 556.597 489.34 555.277 492.062C553.957 494.781 552.11 496.865 549.738 498.311C547.365 499.756 544.622 500.48 541.51 500.48ZM541.51 493.641C543.083 493.641 544.441 493.178 545.587 492.251C546.735 491.324 547.614 490.017 548.227 488.336C548.84 486.655 549.148 484.665 549.148 482.371C549.148 480.076 548.84 478.062 548.227 476.427C547.614 474.793 546.735 473.542 545.587 472.679C544.439 471.813 543.08 471.383 541.51 471.383C539.94 471.383 538.626 471.816 537.478 472.679C536.33 473.545 535.442 474.793 534.815 476.427C534.186 478.062 533.872 480.043 533.872 482.371C533.872 484.698 534.186 486.655 534.815 488.336C535.445 490.017 536.332 491.324 537.478 492.251C538.626 493.178 539.968 493.641 541.51 493.641Z" fill="#1D1D1B"/>
</g>
<defs>
<clipPath id="clip0_387_543">
<rect width="801" height="638" fill="white"/>
</clipPath>
</defs>
</svg>
