<svg width="70" height="70" viewBox="0 0 70 70" fill="none" xmlns="http://www.w3.org/2000/svg">
<circle cx="35" cy="35" r="35" fill="#311B00"/>
<g clip-path="url(#clip0_30_223)">
<path d="M19.0431 18H51.9843C52.5608 18 53.0275 18.4933 53.0275 19.1027V21.2792C53.0275 21.8886 52.5608 22.382 51.9843 22.382H19.0431C18.4667 22.382 18 21.8886 18 21.2792V19.1027C18 18.4933 18.4667 18 19.0431 18Z" fill="white"/>
<path d="M19.0431 50.647H51.9843C52.5608 50.647 53.0275 51.1403 53.0275 51.7497V53.9262C53.0275 54.5356 52.5608 55.0289 51.9843 55.0289H19.0431C18.4667 55.0289 18 54.5356 18 53.9262V51.7497C18 51.1403 18.4667 50.647 19.0431 50.647Z" fill="white"/>
<path d="M32.1098 42.2604C31.698 41.8251 31.0667 41.8251 30.6549 42.2604C30.2431 42.6957 30.2431 43.3632 30.6549 43.7984L34.7725 48.1514C35.1843 48.5867 35.8157 48.5867 36.2274 48.1514L40.3451 43.7984C40.7569 43.3632 40.7569 42.6957 40.3451 42.2604C39.9333 41.8251 39.302 41.8251 38.8902 42.2604L36.5294 44.7561V28.2439L38.8902 30.7396C39.1098 30.9428 39.3569 31.0588 39.6039 31.0588C39.851 31.0588 40.1529 30.9428 40.3176 30.7396C40.7294 30.3043 40.7294 29.6369 40.3176 29.2016L36.2 24.8486C35.8157 24.4424 35.1569 24.4133 34.7451 24.8486L30.6274 29.2016C30.2157 29.6369 30.2157 30.3043 30.6274 30.7396C31.0392 31.1749 31.6706 31.1749 32.0823 30.7396L34.4431 28.2439V44.7851L32.0823 42.2894L32.1098 42.2604Z" fill="white"/>
</g>
<defs>
<clipPath id="clip0_30_223">
<rect width="35" height="37" fill="white" transform="translate(18 18)"/>
</clipPath>
</defs>
</svg>
