<svg width="70" height="70" viewBox="0 0 70 70" fill="none" xmlns="http://www.w3.org/2000/svg">
<circle cx="35" cy="35" r="35" fill="#2E4343"/>
<g clip-path="url(#clip0_30_125)">
<mask id="mask0_30_125" style="mask-type:luminance" maskUnits="userSpaceOnUse" x="15" y="16" width="39" height="38">
<path d="M53.9 16.8H15.4V53.2001H53.9V16.8Z" fill="white"/>
</mask>
<g mask="url(#mask0_30_125)">
<path d="M53.5694 35.3334L47.1192 28.8413V17.9372C47.1192 17.3085 46.6454 16.7997 46.0221 16.7997H41.5103C40.887 16.7997 40.3824 17.3085 40.3824 17.9372V22.0163L35.5398 17.1326C35.0992 16.6882 34.3856 16.6882 33.9449 17.1326L15.7311 35.3334C15.4085 35.6587 15.3115 36.1478 15.4867 36.5732C15.6612 36.9987 16.0733 37.2755 16.5289 37.2755H20.0797V52.063C20.0797 52.6916 20.5842 53.2005 21.2076 53.2005H48.2779C48.9013 53.2005 49.3758 52.6916 49.3758 52.063V37.2755H52.7723C53.2288 37.2755 53.6401 36.9987 53.8145 36.5732C53.9897 36.1478 53.8927 35.6594 53.5702 35.3334H53.5694ZM34.7428 48.6497C30.6281 48.6497 26.8472 45.2342 26.8472 40.6872C26.8472 38.9499 27.3924 37.299 28.4233 35.9127L33.8404 28.6305C34.2653 28.0572 35.2195 28.0572 35.6444 28.6305L41.0614 35.9142C42.0923 37.2997 42.6375 38.9506 42.6375 40.688C42.6375 45.2145 38.877 48.6505 34.742 48.6505L34.7428 48.6497Z" fill="white"/>
</g>
<path d="M34.7425 40.3076C34.0033 41.3018 32.4866 42.983 32.4866 44.1C32.4866 45.3543 33.4987 46.375 34.7425 46.375C35.9862 46.375 36.9683 45.3543 36.9683 44.1C36.9683 42.9838 35.4786 41.298 34.7425 40.3076Z" fill="white"/>
<path d="M39.2572 37.2782L34.7425 31.2085L30.2278 37.2782C29.4916 38.2686 29.1028 39.4463 29.1028 40.6877C29.1028 41.9291 29.533 43.1212 30.2338 44.0691C30.2421 42.8315 30.7248 41.9207 31.1316 41.374L33.8401 37.7294C34.265 37.1561 35.2192 37.1561 35.6441 37.7294L38.3541 41.3747C38.7602 41.9154 39.2422 42.8246 39.2512 44.0683C39.952 43.1204 40.3521 41.9579 40.3521 40.6877C40.3521 39.4175 39.9934 38.2678 39.258 37.2797V37.2782H39.2572Z" fill="white"/>
</g>
<defs>
<clipPath id="clip0_30_125">
<rect width="38.5" height="36.4" fill="white" transform="translate(15.4 16.8)"/>
</clipPath>
</defs>
</svg>
