<svg width="70" height="70" viewBox="0 0 70 70" fill="none" xmlns="http://www.w3.org/2000/svg">
<circle cx="35" cy="35" r="35" fill="#311B00"/>
<g clip-path="url(#clip0_30_270)">
<path d="M19.0508 38.7776L25.2368 33.9423V38.1141H27.2876V32.3391L33.4746 27.5038V31.6956H35.5254V25.9014L41.7124 21.0661V25.278H43.7631V20.0508H49.9501V25.2798H52.0009V19.0254C52.0009 18.4594 51.5415 18 50.9755 18H42.6603C42.4315 18 42.2091 18.0766 42.0286 18.2178L17.3937 37.4697C17.1449 37.6638 17 37.9618 17 38.2781V44.5316H19.0508V38.7776Z" fill="white"/>
<path d="M41.7115 27.3306V32.7228C41.7115 33.2897 41.2521 33.7481 40.6861 33.7481H33.4746V39.1403C33.4746 39.7063 33.0152 40.1657 32.4492 40.1657H25.2368V45.5579C25.2368 46.1239 24.7775 46.5833 24.2115 46.5833H17V51.9454C17 52.5278 17.473 53.0009 18.0555 53.0009H50.9445C51.527 53.0009 52 52.5278 52 51.9454V27.3306H41.7115Z" fill="white"/>
</g>
<defs>
<clipPath id="clip0_30_270">
<rect width="35" height="35" fill="white" transform="translate(17 18)"/>
</clipPath>
</defs>
</svg>
