<svg width="70" height="70" viewBox="0 0 70 70" fill="none" xmlns="http://www.w3.org/2000/svg">
<circle cx="35" cy="35" r="35" fill="#2E4343"/>
<g clip-path="url(#clip0_28_51)">
<path d="M52.6511 51.0644V31.7531H46.8798V41.1458H42.8324L39.2347 37.539H35.0374V51.0644H28.5236V26.1175H29.7908V24.8542H41.7831V28.5221H44.0317V24.8542H49.6631L42.9244 18.0774H29.7908V16.8H20.4967V18.0774H15.8497V24.8542H20.4967V26.1175H21.7639V51.0644H15.4V53.3186H53.7754V51.0644H52.6511ZM42.007 20.3487L44.2465 22.5999H39.7604L42.007 20.3487ZM38.844 20.3317L36.6494 22.5318L34.4548 20.3317H38.845H38.844ZM29.7908 20.3317H31.2738L33.5364 22.5999H29.7908V20.3317ZM20.4967 22.5999H18.0983V20.3317H20.4967V22.5999ZM26.275 51.0644H24.0135V45.8796H26.275V51.0644ZM26.275 43.6254H24.0135V38.5158H26.275V43.6254ZM26.275 36.2616H24.0135V31.152H26.275V36.2616ZM26.275 28.8978H24.0135V26.1175H26.275V28.8978ZM41.933 48.8853H39.6844V45.3536H41.933V48.8853ZM48.8286 48.8853H46.58V45.3536H48.8286V48.8853Z" fill="white"/>
</g>
<defs>
<clipPath id="clip0_28_51">
<rect width="38.3754" height="36.5186" fill="white" transform="translate(15.4 16.8)"/>
</clipPath>
</defs>
</svg>
