<svg width="70" height="70" viewBox="0 0 70 70" fill="none" xmlns="http://www.w3.org/2000/svg">
<circle cx="35" cy="35" r="35" fill="#311B00"/>
<g clip-path="url(#clip0_30_254)">
<path d="M18.8 48.7866V51.1487C18.8 51.6389 18.9901 52.1095 19.3276 52.4564C19.6651 52.8032 20.123 52.9986 20.6 52.9986H22.4C22.877 52.9986 23.3349 52.8032 23.6724 52.4564C24.0099 52.1095 24.2 51.6389 24.2 51.1487V49.2988H45.8V51.1487C45.8 51.6389 45.9901 52.1095 46.3276 52.4564C46.6651 52.8032 47.123 52.9986 47.6 52.9986H49.4C49.877 52.9986 50.3349 52.8032 50.6724 52.4564C51.0099 52.1095 51.2 51.6389 51.2 51.1487V48.7866C51.7456 48.4651 52.2001 48.0003 52.5163 47.4407C52.8324 46.8811 52.9989 46.2452 53 45.5989V40.049C53 38.5113 52.0876 37.1967 50.7894 36.6359L48.3267 29.0442C47.969 27.9389 47.2816 26.9769 46.3625 26.2959C45.4434 25.6149 44.3386 25.2495 43.2057 25.2495H26.7931C25.6602 25.2495 24.5544 25.6149 23.6352 26.2959C22.7161 26.9769 22.0287 27.9389 21.6721 29.0442L19.2095 36.6359C18.5547 36.918 17.9956 37.3921 17.603 37.9991C17.2104 38.6073 17 39.3206 17 40.0502V45.6C17 46.9655 17.7267 48.146 18.8 48.7877V48.7866ZM23.3 45.6C22.9456 45.6 22.5946 45.5283 22.2661 45.3884C21.9387 45.2485 21.6406 45.0439 21.3898 44.7872C20.8835 44.2669 20.5989 43.5605 20.5989 42.824C20.5989 42.0875 20.8835 41.3822 21.3909 40.8607C21.8971 40.3404 22.5845 40.0479 23.3011 40.049C24.0177 40.049 24.704 40.3416 25.2102 40.863C25.7165 41.3833 26.0011 42.0898 26.0011 42.8263C26.0011 43.5628 25.7154 44.2681 25.2091 44.7884C24.7029 45.3087 24.0155 45.6012 23.2989 45.6012L23.3 45.6ZM46.7 45.6C45.9834 45.6 45.2971 45.3075 44.7909 44.7872C44.2846 44.2669 44 43.5605 44 42.824C44 42.0875 44.2846 41.3822 44.792 40.8607C45.2982 40.3404 45.9856 40.0479 46.7022 40.049C47.4189 40.049 48.1051 40.3416 48.6125 40.863C49.1187 41.3833 49.4034 42.0898 49.4022 42.8263C49.4022 43.5628 49.1176 44.2681 48.6103 44.7884C48.104 45.3087 47.4166 45.6012 46.7 45.6012V45.6ZM26.7931 28.9506H43.2035C43.5815 28.9506 43.9494 29.072 44.2565 29.2997C44.5625 29.5263 44.792 29.8478 44.9112 30.2166L46.9025 36.3503H23.0964L25.0854 30.2166C25.3317 29.4593 26.0203 28.9506 26.7931 28.9506Z" fill="white"/>
<path d="M53 25.9677V22.0667L35.5681 16.0948C35.1834 15.963 34.766 15.9688 34.3835 16.111L17 22.6089V26.5458L35.027 19.8086L53 25.9689V25.9677Z" fill="white"/>
</g>
<defs>
<clipPath id="clip0_30_254">
<rect width="36" height="37" fill="white" transform="translate(17 16)"/>
</clipPath>
</defs>
</svg>
