<svg width="500" height="500" viewBox="0 0 500 500" fill="none" xmlns="http://www.w3.org/2000/svg">
<g clip-path="url(#clip0_740_872)">
<rect width="500" height="500" fill="white"/>
<rect x="-35" y="-41" width="581" height="608" fill="#FFF1D8"/>
<path d="M392.852 340.643L285.196 320.829C282.604 320.35 279.943 321.011 277.878 322.607L273.359 326.119C271.937 327.213 270.24 327.874 268.45 328.034L247.575 329.698L224.658 331.865C209.358 333.21 194.126 335.057 178.848 336.698C163.593 338.591 148.361 340.438 133.129 342.649C124.596 343.881 116.039 345.157 107.529 346.548L106.863 350.06C115.833 349.946 124.779 349.74 133.726 349.467C149.095 349.011 164.442 348.213 179.788 347.415C195.112 346.366 210.459 345.568 225.737 344.245L248.699 342.421L267.143 340.688C269.735 340.438 272.327 340.483 274.919 340.757C284.875 341.851 294.877 342.809 304.855 343.721C316.371 344.884 327.91 345.727 339.448 346.639C350.987 347.506 362.549 348.281 374.11 348.874C380.786 349.239 387.461 349.512 394.137 349.763L392.875 340.643H392.852Z" fill="#1C3027"/>
<path d="M390.145 323.679L389.801 321.376L389.044 315.995L285.288 280.951C282.902 280.153 280.241 280.563 278.246 282.091L272.992 286.058C272.029 286.788 270.882 287.289 269.689 287.494L247.896 291.257L225.668 295.429C210.826 298.097 196.076 301.289 181.303 304.253C166.552 307.468 151.825 310.66 137.144 314.171C128.885 316.155 120.627 318.184 112.392 320.305L111.727 323.885C120.627 322.995 129.505 321.969 138.359 320.898C153.362 319.096 168.296 316.953 183.229 314.833C198.117 312.461 213.051 310.318 227.893 307.65L250.19 303.82L264.941 301.061C269.047 300.286 273.268 300.4 277.328 301.357C285.93 303.364 294.556 305.256 303.181 307.103C314.307 309.611 325.501 311.8 336.673 314.08C347.867 316.292 359.085 318.412 370.325 320.373C376.427 321.445 382.552 322.448 388.677 323.406L390.145 323.862V323.634V323.679Z" fill="#1C3027"/>
<path d="M386.2 297.664L385.993 296.341L385.144 290.253L287.284 244.082C283.82 242.463 279.806 242.508 276.41 244.219L272.992 245.929C272.258 246.293 271.478 246.59 270.676 246.818L248.241 252.906L226.7 259.062C212.317 263.075 198.072 267.589 183.78 271.876C169.535 276.391 155.312 280.928 141.158 285.762C133.175 288.498 125.215 291.257 117.278 294.13L116.59 297.8C125.422 296.068 134.23 294.221 143.016 292.328C157.629 289.159 172.173 285.693 186.693 282.228C201.168 278.511 215.689 275.045 230.072 271.055L251.704 265.218L263.748 261.798C268.657 260.407 273.91 260.612 278.704 262.368C286.297 265.127 293.913 267.84 301.529 270.485C312.265 274.338 323.093 277.918 333.92 281.521C344.748 285.1 355.644 288.566 366.563 291.918C372.826 293.833 379.111 295.68 385.42 297.458L386.2 297.8V297.664Z" fill="#1C3027"/>
<path d="M190.134 249.508C204.174 244.469 218.304 239.635 232.229 234.323L253.196 226.479L265.675 221.623C269.322 220.209 273.428 220.414 276.915 222.193L284.302 225.978L299.878 233.684C310.224 238.883 320.707 243.853 331.167 248.824C341.651 253.795 352.18 258.605 362.801 263.325C369.201 266.175 375.647 268.957 382.139 271.67L382.254 271.739V271.534L381.268 264.602L287.33 204.636C284.118 202.584 280.081 202.265 276.594 203.792L272.258 205.685L269.552 206.711L248.608 214.6L227.778 222.763C213.854 228.098 200.113 233.935 186.304 239.567C172.563 245.404 158.845 251.241 145.219 257.374C137.511 260.863 129.826 264.374 122.164 267.999L121.453 271.784C130.239 269.185 138.956 266.472 147.673 263.713C161.919 259.176 176.05 254.365 190.157 249.531L190.134 249.508Z" fill="#1C3027"/>
<path d="M377.322 238.746L285.815 165.715C282.512 163.093 277.993 162.591 274.185 164.438L228.833 186.464C215.368 193.167 202.131 200.281 188.804 207.235C175.567 214.372 162.331 221.532 149.256 228.965C141.823 233.206 134.391 237.469 127.027 241.824L126.293 245.769C135.01 242.28 143.658 238.655 152.284 235.007C166.139 229.101 179.88 222.945 193.575 216.743C207.201 210.382 220.896 204.157 234.408 197.545C244.753 192.529 255.099 187.513 265.399 182.36C269.23 180.445 273.795 180.718 277.374 183.112L283.361 187.125L298.363 196.861C308.319 203.405 318.413 209.766 328.552 216.082C338.645 222.444 348.876 228.6 359.131 234.71C365.508 238.473 371.908 242.189 378.354 245.837L377.368 238.701L377.322 238.746Z" fill="#1C3027"/>
<path d="M373.4 213.027L284.99 126.315C281.572 122.964 276.273 122.325 272.167 124.81L229.958 150.233C216.974 158.305 204.197 166.696 191.373 174.995L172.288 187.695L153.339 200.623C146.159 205.639 138.979 210.655 131.868 215.786L131.088 219.935C139.736 215.489 148.316 210.929 156.872 206.323L176.99 195.265L196.948 183.979C210.161 176.295 223.42 168.679 236.496 160.767C246.13 154.953 255.765 149.139 265.331 143.234C269.139 140.885 274.048 141.227 277.466 144.1C283.866 149.481 290.312 154.816 296.827 160.06L311.279 171.826L325.891 183.386C335.595 191.115 345.505 198.639 355.415 206.164C361.7 210.883 368.055 215.558 374.432 220.163L373.445 213.027H373.4Z" fill="#1C3027"/>
<path d="M369.66 188.06L282.146 87.3031C278.865 83.5182 273.199 82.9025 269.185 85.8894L231.105 114.048C218.626 123.488 206.284 133.133 193.966 142.777L175.614 157.416L157.423 172.282C150.495 178.073 143.567 183.887 136.685 189.77L135.859 194.17C144.439 188.744 152.926 183.18 161.414 177.617L180.936 164.507L200.274 151.168C213.074 142.162 225.875 133.156 238.537 123.921C247.828 117.104 257.141 110.332 266.386 103.446C269.529 101.12 273.887 101.44 276.617 104.244C282.834 110.606 289.05 116.944 295.382 123.192L309.237 137.009L323.276 150.621C332.59 159.741 342.156 168.634 351.699 177.549C357.892 183.272 364.155 188.926 370.486 194.558L369.637 188.06H369.66Z" fill="#1C3027"/>
<path d="M396.843 366.909L286.297 357.561C282.971 357.287 279.714 358.632 277.557 361.186L274.621 364.697C272.648 367.046 269.735 368.368 266.661 368.346L247.69 368.186L206.238 368.551C192.428 368.893 178.596 369.03 164.786 369.622C144.071 370.329 123.357 371.287 102.642 372.837L102 376.303C122.921 377.876 143.865 378.857 164.786 379.564C178.596 380.156 192.428 380.293 206.238 380.635L247.69 381L289.142 380.658C302.951 380.293 316.784 380.179 330.594 379.586C353.098 378.834 375.601 377.717 398.082 375.915L396.82 366.932L396.843 366.909Z" fill="#1C3027"/>
</g>
<defs>
<clipPath id="clip0_740_872">
<rect width="500" height="500" fill="white"/>
</clipPath>
</defs>
</svg>
