<svg width="70" height="70" viewBox="0 0 70 70" fill="none" xmlns="http://www.w3.org/2000/svg">
<circle cx="35" cy="35" r="35" fill="#f3d192"/>
<g clip-path="url(#clip0_270_119)">
<path d="M34.9998 45.9531C35.3908 45.9531 35.7082 45.6381 35.7082 45.25C35.7082 44.8619 35.3908 44.5469 34.9998 44.5469C34.6088 44.5469 34.2915 44.8619 34.2915 45.25C34.2915 45.6381 34.6088 45.9531 34.9998 45.9531Z" fill="#1c3027"/>
<path d="M45.6248 41.7344H41.3748C40.9838 41.7344 40.6665 42.0494 40.6665 42.4375V46.6562C40.6665 47.0444 40.9838 47.3594 41.3748 47.3594H45.6248C46.0158 47.3594 46.3332 47.0444 46.3332 46.6562V42.4375C46.3332 42.0494 46.0158 41.7344 45.6248 41.7344ZM44.9165 45.9531H42.0832V43.1406H44.9165V45.9531Z" fill="#1c3027"/>
<path d="M28.6248 24.8594H24.3748C23.9838 24.8594 23.6665 25.1744 23.6665 25.5625V29.7812C23.6665 30.1694 23.9838 30.4844 24.3748 30.4844H28.6248C29.0158 30.4844 29.3332 30.1694 29.3332 29.7812V25.5625C29.3332 25.1744 29.0158 24.8594 28.6248 24.8594ZM27.9165 29.0781H25.0832V26.2656H27.9165V29.0781Z" fill="#1c3027"/>
<path d="M37.1248 24.8594H32.8748C32.4838 24.8594 32.1665 25.1744 32.1665 25.5625V29.7812C32.1665 30.1694 32.4838 30.4844 32.8748 30.4844H37.1248C37.5158 30.4844 37.8332 30.1694 37.8332 29.7812V25.5625C37.8332 25.1744 37.5158 24.8594 37.1248 24.8594ZM36.4165 29.0781H33.5832V26.2656H36.4165V29.0781Z" fill="#1c3027"/>
<path d="M40.6665 25.5625V29.7812C40.6665 30.1694 40.9838 30.4844 41.3748 30.4844H45.6248C46.0158 30.4844 46.3332 30.1694 46.3332 29.7812V25.5625C46.3332 25.1744 46.0158 24.8594 45.6248 24.8594H41.3748C40.9838 24.8594 40.6665 25.1744 40.6665 25.5625ZM42.0832 26.2656H44.9165V29.0781H42.0832V26.2656Z" fill="#1c3027"/>
<path d="M28.6248 33.2969H24.3748C23.9838 33.2969 23.6665 33.6119 23.6665 34V38.2188C23.6665 38.6069 23.9838 38.9219 24.3748 38.9219H28.6248C29.0158 38.9219 29.3332 38.6069 29.3332 38.2188V34C29.3332 33.6119 29.0158 33.2969 28.6248 33.2969ZM27.9165 37.5156H25.0832V34.7031H27.9165V37.5156Z" fill="#1c3027"/>
<path d="M37.1248 33.2969H32.8748C32.4838 33.2969 32.1665 33.6119 32.1665 34V38.2188C32.1665 38.6069 32.4838 38.9219 32.8748 38.9219H37.1248C37.5158 38.9219 37.8332 38.6069 37.8332 38.2188V34C37.8332 33.6119 37.5158 33.2969 37.1248 33.2969ZM36.4165 37.5156H33.5832V34.7031H36.4165V37.5156Z" fill="#1c3027"/>
<path d="M45.6248 33.2969H41.3748C40.9838 33.2969 40.6665 33.6119 40.6665 34V38.2188C40.6665 38.6069 40.9838 38.9219 41.3748 38.9219H45.6248C46.0158 38.9219 46.3332 38.6069 46.3332 38.2188V34C46.3332 33.6119 46.0158 33.2969 45.6248 33.2969ZM44.9165 37.5156H42.0832V34.7031H44.9165V37.5156Z" fill="#1c3027"/>
<path d="M28.6248 41.7344H24.3748C23.9838 41.7344 23.6665 42.0494 23.6665 42.4375V46.6562C23.6665 47.0444 23.9838 47.3594 24.3748 47.3594H28.6248C29.0158 47.3594 29.3332 47.0444 29.3332 46.6562V42.4375C29.3332 42.0494 29.0158 41.7344 28.6248 41.7344ZM27.9165 45.9531H25.0832V43.1406H27.9165V45.9531Z" fill="#1c3027"/>
<path d="M44.2083 16H25.7917C25.4007 16 25.0833 16.315 25.0833 16.7031V20.6406H21.5417C21.1507 20.6406 20.8333 20.9556 20.8333 21.3438V50.5938H18.7083C18.3173 50.5938 18 50.9087 18 51.2969C18 51.685 18.3173 52 18.7083 52H51.2917C51.6827 52 52 51.685 52 51.2969C52 50.9087 51.6827 50.5938 51.2917 50.5938H49.1667V21.3438C49.1667 20.9556 48.8493 20.6406 48.4583 20.6406H44.9167V16.7031C44.9167 16.315 44.5993 16 44.2083 16ZM26.5 17.4062H43.5V20.6406H26.5V17.4062ZM37.8333 50.5938H35.7083V48.0625C35.7083 47.6744 35.391 47.3594 35 47.3594C34.609 47.3594 34.2917 47.6744 34.2917 48.0625V50.5938H32.1667V43.1406H37.8333V50.5938ZM47.75 50.5938H39.25V42.4375C39.25 42.0494 38.9327 41.7344 38.5417 41.7344H31.4583C31.0673 41.7344 30.75 42.0494 30.75 42.4375V50.5938H22.25V22.0469H47.75V50.5938Z" fill="#1c3027"/>
</g>
<defs>
<clipPath id="clip0_270_119">
<rect width="34" height="36" fill="white" transform="translate(18 16)"/>
</clipPath>
</defs>
</svg>
