<svg width="70" height="70" viewBox="0 0 70 70" fill="none" xmlns="http://www.w3.org/2000/svg">
<circle cx="35" cy="35" r="35" fill="#FFD299"/>
<g clip-path="url(#clip0_270_100)">
<path d="M31.1374 38.8625C30.7858 38.5121 30.2151 38.5121 29.8647 38.8625L24.1999 44.5273V39.5C24.1999 39.0031 23.7968 38.6 23.2999 38.6C22.803 38.6 22.3999 39.0031 22.3999 39.5V46.7C22.3999 46.8172 22.4233 46.9344 22.4702 47.0434C22.5604 47.2637 22.7362 47.4394 22.9577 47.5309C23.0655 47.5742 23.1827 47.5988 23.2999 47.5988H30.4999C30.9968 47.5988 31.3999 47.1957 31.3999 46.6988C31.3999 46.2019 30.9968 45.7988 30.4999 45.7988H25.4726L31.1351 40.1363C31.4878 39.7836 31.4878 39.2152 31.1374 38.8625Z" fill="#311B00"/>
<path d="M47.0444 22.468C46.9343 22.4246 46.8183 22.4 46.7011 22.4H39.5011C39.0042 22.4 38.6011 22.8031 38.6011 23.3C38.6011 23.7969 39.0042 24.2 39.5011 24.2H44.5284L38.8659 29.8625C38.5155 30.2129 38.5155 30.7836 38.8659 31.1351C39.0405 31.3109 39.2714 31.4 39.5011 31.4C39.7308 31.4 39.9616 31.3121 40.1386 31.1375L45.8011 25.4727V30.5C45.8011 30.9969 46.2042 31.4 46.7011 31.4C47.1979 31.4 47.6011 30.9969 47.6011 30.5V23.3C47.6011 23.1828 47.5776 23.0656 47.5308 22.9566C47.4405 22.7363 47.2647 22.5605 47.0444 22.468Z" fill="#311B00"/>
<path d="M48.5 17H21.5C19.0191 17 17 19.018 17 21.5V48.5C17 50.982 19.0191 53 21.5 53H48.5C50.9809 53 53 50.982 53 48.5V21.5C53 19.018 50.9809 17 48.5 17ZM51.2 48.5C51.2 49.9883 49.9883 51.2 48.5 51.2H21.5C20.0117 51.2 18.8 49.9883 18.8 48.5V21.5C18.8 20.0117 20.0117 18.8 21.5 18.8H48.5C49.9883 18.8 51.2 20.0117 51.2 21.5V48.5Z" fill="#311B00"/>
</g>
<defs>
<clipPath id="clip0_270_100">
<rect width="36" height="36" fill="white" transform="translate(17 17)"/>
</clipPath>
</defs>
</svg>
