<svg width="70" height="70" viewBox="0 0 70 70" fill="none" xmlns="http://www.w3.org/2000/svg">
<circle cx="35" cy="35" r="35" fill="#f3d192"/>
<g clip-path="url(#clip0_270_165)">
<mask id="mask0_270_165" style="mask-type:luminance" maskUnits="userSpaceOnUse" x="16" y="13" width="38" height="38">
<path d="M54 13H16V51H54V13Z" fill="white"/>
</mask>
<g mask="url(#mask0_270_165)">
<path d="M51.7675 23.4322H47.8458C48.6374 22.6405 52.6512 18.6278 53.4478 17.8301C54.1831 17.0959 54.1831 15.9005 53.4478 15.1662L51.8328 13.5512C51.0985 12.8169 49.9031 12.8169 49.1689 13.5512C47.1234 15.5967 41.0068 21.7133 39.2869 23.4322H24.1908V19.7034C24.1908 19.2937 23.8583 18.9612 23.4486 18.9612H21.9583C18.6729 18.9612 16 21.6341 16 24.9195V46.9041C16 49.1683 17.8317 51 20.0959 51H51.7675C52.9985 51 54 49.9985 54 48.7675V25.6647C54 24.4336 52.9985 23.4322 51.7675 23.4322ZM41.2938 27.8863L39.1137 25.7062L47.2718 17.5481L49.4519 19.7282L41.2938 27.8863ZM38.2963 26.9878L40.0113 28.7027L36.8673 30.1317L38.2963 26.9878ZM50.2188 14.6011C50.3742 14.4448 50.6285 14.4448 50.7839 14.6011L52.3989 16.2161C52.5542 16.3715 52.5542 16.6258 52.3989 16.7812L50.5018 18.6782L48.3218 16.4982L50.2188 14.6011ZM17.4844 24.9195C17.4844 22.4525 19.4913 20.4456 21.9583 20.4456H22.7064V42.8082H20.0949C19.1033 42.8082 18.1929 43.1625 17.4834 43.7513V24.9195H17.4844ZM52.5156 48.7665C52.5156 49.1792 52.1802 49.5146 51.7675 49.5146H20.0959C18.6521 49.5146 17.4844 48.3469 17.4844 46.9031C17.4844 45.4593 18.656 44.2916 20.0959 44.2916H23.4496C23.8593 44.2916 24.1918 43.9591 24.1918 43.5494V24.9166H37.8035C37.6125 25.1214 37.4759 25.2065 37.3879 25.3995L34.8941 30.8847H30.9002C30.4905 30.8847 30.158 31.2172 30.158 31.6269C30.158 32.0366 30.4905 32.3691 30.9002 32.3691C31.2554 32.3691 35.5809 32.3691 35.3711 32.3691C35.3909 32.3671 35.5255 32.3721 35.6789 32.3028L41.5995 29.6111C41.6718 29.5785 41.7539 29.5241 41.8172 29.4607L46.3604 24.9175H51.7655C52.1782 24.9175 52.5136 25.253 52.5136 25.6657V48.7675L52.5156 48.7665Z" fill="#1c3027"/>
</g>
<path d="M49.532 36.0949C49.9416 36.0949 50.2741 35.7624 50.2741 35.3527C50.2741 34.943 49.9416 34.6105 49.532 34.6105H27.9175V29.3905C27.9175 28.9808 27.585 28.6483 27.1753 28.6483C26.7656 28.6483 26.4331 28.9808 26.4331 29.3905V35.3527C26.4331 35.7624 26.7656 36.0949 27.1753 36.0949H29.4137V46.531C29.4137 46.9407 29.7462 47.2732 30.1559 47.2732H49.532C49.9416 47.2732 50.2741 46.9407 50.2741 46.531C50.2741 46.1214 49.9416 45.7889 49.532 45.7889H30.8981V36.0949H39.1018V42.0621H36.8633C36.4536 42.0621 36.1211 42.3946 36.1211 42.8043C36.1211 43.214 36.4536 43.5465 36.8633 43.5465H49.532C49.9416 43.5465 50.2741 43.214 50.2741 42.8043C50.2741 42.3946 49.9416 42.0621 49.532 42.0621H47.2925V36.0949H49.532ZM45.8091 42.0631H40.5861V36.0949H45.8091V42.0631Z" fill="#1c3027"/>
</g>
<defs>
<clipPath id="clip0_270_165">
<rect width="38" height="38" fill="white" transform="translate(16 13)"/>
</clipPath>
</defs>
</svg>
