<svg width="70" height="70" viewBox="0 0 70 70" fill="none" xmlns="http://www.w3.org/2000/svg">
<circle cx="35" cy="35" r="35" fill="#FFD299"/>
<g clip-path="url(#clip0_270_159)">
<path d="M17.7616 52H51.2492C51.6637 52 52 51.6664 52 51.2553V29.1864C52 28.7753 51.6637 28.4417 51.2492 28.4417H48.4218V18.4894H51.2492C51.6637 18.4894 52 18.1558 52 17.7447C52 17.3336 51.6637 17 51.2492 17H47.6709C47.5976 17.0019 47.5243 17.0126 47.4529 17.0339H47.4158C47.3493 17.0572 47.2867 17.0882 47.2281 17.127L17.3119 39.4112C17.0528 39.6042 16.9472 39.9397 17.0508 40.2441C17.1545 40.5486 17.4419 40.7532 17.7665 40.7512C17.9278 40.7512 18.0842 40.6979 18.2133 40.6029L20.0043 39.2735V46.0988H17.7508C17.3363 46.0988 17 46.4323 17 46.8435V51.2553C17 51.4541 17.0802 51.6461 17.2239 51.7857C17.3666 51.9253 17.5612 52.0029 17.7616 52ZM21.5168 38.1526L46.9211 19.234V28.4417H44.5522C44.1377 28.4417 43.8014 28.7753 43.8014 29.1864V32.8536H37.8553C37.4408 32.8536 37.1045 33.1871 37.1045 33.5982V37.2693H31.1574C30.7429 37.2693 30.4066 37.6028 30.4066 38.014V41.6811H24.4605C24.0459 41.6811 23.7096 42.0147 23.7096 42.4258V46.0969H21.506L21.5177 38.1507L21.5168 38.1526ZM18.5124 47.5882H24.4595C24.874 47.5882 25.2103 47.2546 25.2103 46.8435V43.1724H31.1564C31.571 43.1724 31.9073 42.8389 31.9073 42.4277V38.7606H37.8543C38.2689 38.7606 38.6052 38.427 38.6052 38.0159V34.3449H44.5513C44.9658 34.3449 45.3021 34.0113 45.3021 33.6002V29.933H50.4983V50.5126H18.5124V47.5901V47.5882Z" fill="#311B00"/>
</g>
<defs>
<clipPath id="clip0_270_159">
<rect width="35" height="35" fill="white" transform="translate(17 17)"/>
</clipPath>
</defs>
</svg>
