<svg width="70" height="70" viewBox="0 0 70 70" fill="none" xmlns="http://www.w3.org/2000/svg">
<circle cx="35" cy="35" r="35" fill="#f3d192"/>
<g clip-path="url(#clip0_270_134)">
<path d="M23.4671 31.756H27.7785C28.1751 31.756 28.497 31.4334 28.497 31.036V26.716C28.497 26.3186 28.1751 25.996 27.7785 25.996H23.4671C23.0705 25.996 22.7485 26.3186 22.7485 26.716V31.036C22.7485 31.4334 23.0705 31.756 23.4671 31.756ZM24.1857 27.436H27.0599V30.316H24.1857V27.436Z" fill="#1c3027"/>
<path d="M32.8087 30.316V27.436H33.5273C33.9239 27.436 34.2458 27.1134 34.2458 26.716C34.2458 26.3186 33.9239 25.996 33.5273 25.996H32.0901C31.6935 25.996 31.3716 26.3186 31.3716 26.716V31.036C31.3716 31.4334 31.6935 31.756 32.0901 31.756H33.5273C33.9239 31.756 34.2458 31.4334 34.2458 31.036C34.2458 30.6386 33.9239 30.316 33.5273 30.316H32.8087Z" fill="#1c3027"/>
<path d="M23.4671 40.396H27.7785C28.1751 40.396 28.497 40.0735 28.497 39.676V35.356C28.497 34.9586 28.1751 34.636 27.7785 34.636H23.4671C23.0705 34.636 22.7485 34.9586 22.7485 35.356V39.676C22.7485 40.0735 23.0705 40.396 23.4671 40.396ZM24.1857 36.076H27.0599V38.956H24.1857V36.076Z" fill="#1c3027"/>
<path d="M32.8087 38.956V36.076H33.5273C33.9239 36.076 34.2458 35.7535 34.2458 35.356C34.2458 34.9586 33.9239 34.636 33.5273 34.636H32.0901C31.6935 34.636 31.3716 34.9586 31.3716 35.356V39.676C31.3716 40.0735 31.6935 40.396 32.0901 40.396H33.5273C33.9239 40.396 34.2458 40.0735 34.2458 39.676C34.2458 39.2786 33.9239 38.956 33.5273 38.956H32.8087Z" fill="#1c3027"/>
<path d="M23.4671 49.036H27.7785C28.1751 49.036 28.497 48.7134 28.497 48.316V43.996C28.497 43.5986 28.1751 43.276 27.7785 43.276H23.4671C23.0705 43.276 22.7485 43.5986 22.7485 43.996V48.316C22.7485 48.7134 23.0705 49.036 23.4671 49.036ZM24.1857 44.716H27.0599V47.596H24.1857V44.716Z" fill="#1c3027"/>
<path d="M34.2456 49.036C33.849 49.036 33.5271 49.3586 33.5271 49.756V52.348H31.3714V44.716H33.5271C33.9237 44.716 34.2456 44.3935 34.2456 43.996C34.2456 43.5986 33.9237 43.276 33.5271 43.276H30.6528C30.2562 43.276 29.9343 43.5986 29.9343 43.996V52.348H21.3115V23.116H33.5271C33.9237 23.116 34.2456 22.7935 34.2456 22.396C34.2456 21.9986 33.9237 21.676 33.5271 21.676H25.6229V18.364H33.5271C33.9237 18.364 34.2456 18.0415 34.2456 17.644C34.2456 17.2466 33.9237 16.924 33.5271 16.924H24.9043C24.5077 16.924 24.1858 17.2466 24.1858 17.644V21.676H20.5929C20.1963 21.676 19.8744 21.9986 19.8744 22.396V52.348H17.7431C17.3601 52.348 17.026 52.6375 17.0016 53.0198C16.9743 53.4388 17.3062 53.788 17.7187 53.788H33.5271C33.9237 53.788 34.2456 53.4655 34.2456 53.068V49.036Z" fill="#1c3027"/>
<path d="M34.2457 15.592C33.8289 15.592 33.4912 15.2536 33.4912 14.836V13.756C33.4912 13.3384 33.8289 13 34.2457 13C34.6625 13 35.0002 13.3384 35.0002 13.756V14.836C35.0002 15.2536 34.6625 15.592 34.2457 15.592Z" fill="#1c3027"/>
<path d="M34.2457 52.8253C33.8289 52.8253 33.4912 52.4869 33.4912 52.0693V49.7905C33.4912 49.3729 33.8289 49.0345 34.2457 49.0345C34.6625 49.0345 35.0002 49.3729 35.0002 49.7905V52.0693C35.0002 52.4869 34.6625 52.8253 34.2457 52.8253ZM34.2457 46.5959C33.8289 46.5959 33.4912 46.2575 33.4912 45.8399V43.5611C33.4912 43.1435 33.8289 42.8051 34.2457 42.8051C34.6625 42.8051 35.0002 43.1435 35.0002 43.5611V45.8399C35.0002 46.2575 34.6625 46.5959 34.2457 46.5959ZM34.2457 40.3665C33.8289 40.3665 33.4912 40.0281 33.4912 39.6105V37.3317C33.4912 36.9141 33.8289 36.5757 34.2457 36.5757C34.6625 36.5757 35.0002 36.9141 35.0002 37.3317V39.6105C35.0002 40.0281 34.6625 40.3665 34.2457 40.3665ZM34.2457 34.1363C33.8289 34.1363 33.4912 33.7979 33.4912 33.3803V31.1015C33.4912 30.6839 33.8289 30.3455 34.2457 30.3455C34.6625 30.3455 35.0002 30.6839 35.0002 31.1015V33.3803C35.0002 33.7979 34.6625 34.1363 34.2457 34.1363ZM34.2457 27.9069C33.8289 27.9069 33.4912 27.5685 33.4912 27.1509V24.8721C33.4912 24.4545 33.8289 24.1161 34.2457 24.1161C34.6625 24.1161 35.0002 24.4545 35.0002 24.8721V27.1509C35.0002 27.5685 34.6625 27.9069 34.2457 27.9069ZM34.2457 21.6774C33.8289 21.6774 33.4912 21.339 33.4912 20.9214V18.6426C33.4912 18.225 33.8289 17.8866 34.2457 17.8866C34.6625 17.8866 35.0002 18.225 35.0002 18.6426V20.9214C35.0002 21.339 34.6625 21.6774 34.2457 21.6774Z" fill="#1c3027"/>
<path d="M34.2457 58C33.8289 58 33.4912 57.6616 33.4912 57.244V56.164C33.4912 55.7464 33.8289 55.408 34.2457 55.408C34.6625 55.408 35.0002 55.7464 35.0002 56.164V57.244C35.0002 57.6616 34.6625 58 34.2457 58Z" fill="#1c3027"/>
</g>
<path d="M43.29 43V30.649L40.392 31.5L40.024 30.603L43.773 28.648H44.9V43H43.29Z" fill="#1c3027"/>
<defs>
<clipPath id="clip0_270_134">
<rect width="18" height="45" fill="white" transform="translate(17 13)"/>
</clipPath>
</defs>
</svg>
