<svg width="70" height="70" viewBox="0 0 70 70" fill="none" xmlns="http://www.w3.org/2000/svg">
<circle cx="35" cy="35" r="35" fill="#FFD299"/>
<g clip-path="url(#clip0_270_108)">
<path d="M25.914 51.3843H24.2127V27.714H28.6834C28.9491 27.714 29.1985 27.5871 29.3527 27.3731C29.507 27.159 29.5455 26.8851 29.4577 26.6379L25.8566 16.5405C25.7409 16.2165 25.4308 16 25.083 16H18.4213C18.0726 16 17.7625 16.2165 17.6469 16.5405L14.0457 26.6387C13.9579 26.8859 13.9965 27.1598 14.1507 27.3739C14.3049 27.5879 14.5543 27.7148 14.8201 27.7148H15.1498V30.2999C15.1498 30.7459 15.5173 31.1078 15.9702 31.1078C16.423 31.1078 16.7905 30.7459 16.7905 30.2999V27.7148H19.2908V51.3851H17.5878C17.135 51.3851 16.7675 51.747 16.7675 52.1929C16.7675 52.6389 17.135 53.0008 17.5878 53.0008H25.914C26.3668 53.0008 26.7343 52.6389 26.7343 52.1929C26.7343 51.747 26.3668 51.3851 25.914 51.3851V51.3843ZM19.002 17.6157H24.5006L27.5251 26.0983H15.9775L19.002 17.6157ZM20.9314 51.3843V27.714H22.572V51.3843H20.9314Z" fill="#311B00"/>
<path d="M52.5545 34.1219C52.0714 34.1219 51.612 34.2205 51.1936 34.3982C50.7261 31.1272 47.8664 28.6018 44.4179 28.6018H38.0908C34.6422 28.6018 31.7826 31.1272 31.315 34.3974C30.8975 34.2197 30.4373 34.1211 29.9541 34.1211C28.0543 34.1211 26.5088 35.6431 26.5088 37.5141V37.5868C26.5088 38.7873 27.1683 39.8375 28.1494 40.4071V42.4913C28.1494 45.7034 30.2748 48.4348 33.214 49.3945L32.1763 51.8843C32.0721 52.1332 32.1017 52.4175 32.2543 52.6413C32.4068 52.8651 32.662 52.9992 32.9359 52.9992H36.5453C36.8086 52.9992 37.0555 52.8748 37.2098 52.6655L39.345 49.7629H43.1652L45.3005 52.6655C45.4547 52.8756 45.7016 52.9992 45.965 52.9992H49.5743C49.8475 52.9992 50.1034 52.8651 50.256 52.6413C50.4086 52.4175 50.4373 52.134 50.3339 51.8843L49.2962 49.3945C52.2346 48.4348 54.3609 45.7034 54.3609 42.4913V40.4071C55.342 39.8375 56.0015 38.7873 56.0015 37.5868V37.5141C56.0015 35.6431 54.456 34.1211 52.5562 34.1211L52.5545 34.1219ZM36.1261 51.3843H34.159L34.8481 49.7322C35.0737 49.7524 35.3025 49.7637 35.533 49.7637H37.3189L36.1261 51.3843ZM48.3504 51.3843H46.3833L45.1906 49.7637H46.9764C47.2077 49.7637 47.4358 49.7524 47.6614 49.7322L48.3496 51.3843H48.3504ZM54.3592 37.5884C54.3592 38.5013 53.6045 39.2446 52.6776 39.2446C52.2248 39.2446 51.8573 39.6065 51.8573 40.0524C51.8573 40.4984 52.2248 40.8603 52.6776 40.8603C52.6915 40.8603 52.7046 40.8595 52.7186 40.8595V42.493C52.7186 45.6113 50.1428 48.148 46.9764 48.148H35.533C32.3666 48.148 29.7909 45.6113 29.7909 42.493V40.8595C29.8048 40.8595 29.8179 40.8603 29.8319 40.8603C30.2847 40.8603 30.6522 40.4984 30.6522 40.0524C30.6522 39.6065 30.2847 39.2446 29.8319 39.2446C28.9049 39.2446 28.1502 38.5013 28.1502 37.5884V37.5157C28.1502 36.5358 28.9599 35.7384 29.9549 35.7384C30.95 35.7384 31.7596 36.5358 31.7596 37.5157V42.1698C31.7596 44.3971 33.5996 46.2091 35.8612 46.2091H37.3599C37.8127 46.2091 38.1802 45.8472 38.1802 45.4013C38.1802 44.9553 37.8127 44.5934 37.3599 44.5934H35.8612C34.5044 44.5934 33.4002 43.506 33.4002 42.1698V37.5157C33.4002 36.8638 33.2124 36.2547 32.8875 35.7376V35.3434C32.8875 32.5175 35.2221 30.2183 38.0916 30.2183H44.4187C47.2881 30.2183 49.6227 32.5175 49.6227 35.3434V35.7376C49.2979 36.2555 49.11 36.8646 49.11 37.5157V42.1698C49.11 43.506 48.0059 44.5934 46.6491 44.5934H44.0241C43.5713 44.5934 43.2038 44.9553 43.2038 45.4013C43.2038 45.8472 43.5713 46.2091 44.0241 46.2091H46.6491C48.9107 46.2091 50.7507 44.3971 50.7507 42.1698V37.5157C50.7507 36.5358 51.5603 35.7384 52.5554 35.7384C53.5504 35.7384 54.36 36.5358 54.36 37.5157V37.5884H54.3592Z" fill="#311B00"/>
<path d="M45.1499 38.6056C44.9342 38.6056 44.7225 38.5191 44.5699 38.3689C44.4174 38.2186 44.3296 38.0102 44.3296 37.7977C44.3296 37.5852 44.4174 37.3768 44.5699 37.2265C44.7225 37.0763 44.9342 36.9898 45.1499 36.9898C45.3656 36.9898 45.5773 37.0763 45.7299 37.2265C45.8824 37.3768 45.9702 37.5852 45.9702 37.7977C45.9702 38.0102 45.8824 38.2186 45.7299 38.3689C45.5773 38.5191 45.3656 38.6056 45.1499 38.6056Z" fill="#311B00"/>
<path d="M37.3599 38.6056C37.1441 38.6056 36.9325 38.5191 36.7799 38.3689C36.6273 38.2186 36.5396 38.0102 36.5396 37.7977C36.5396 37.5852 36.6273 37.3768 36.7799 37.2265C36.9325 37.0763 37.1441 36.9898 37.3599 36.9898C37.5756 36.9898 37.7872 37.0763 37.9398 37.2265C38.0924 37.3768 38.1802 37.5852 38.1802 37.7977C38.1802 38.0102 38.0924 38.2186 37.9398 38.3689C37.7872 38.5191 37.5756 38.6056 37.3599 38.6056Z" fill="#311B00"/>
<path d="M15.9702 34.0961C15.7545 34.0961 15.5428 34.0096 15.3903 33.8594C15.2377 33.7091 15.1499 33.5007 15.1499 33.2882C15.1499 33.0757 15.2377 32.8673 15.3903 32.717C15.5428 32.5668 15.7545 32.4803 15.9702 32.4803C16.186 32.4803 16.3976 32.5668 16.5502 32.717C16.7028 32.8673 16.7905 33.0757 16.7905 33.2882C16.7905 33.5007 16.7028 33.7091 16.5502 33.8594C16.3976 34.0096 16.186 34.0961 15.9702 34.0961Z" fill="#311B00"/>
<path d="M40.8301 46.2091C40.6143 46.2091 40.4027 46.1227 40.2501 45.9724C40.0975 45.8222 40.0098 45.6137 40.0098 45.4013C40.0098 45.1888 40.0975 44.9804 40.2501 44.8301C40.4027 44.6799 40.6143 44.5934 40.8301 44.5934C41.0458 44.5934 41.2575 44.6799 41.41 44.8301C41.5626 44.9804 41.6504 45.1888 41.6504 45.4013C41.6504 45.6137 41.5626 45.8222 41.41 45.9724C41.2575 46.1227 41.0458 46.2091 40.8301 46.2091Z" fill="#311B00"/>
</g>
<defs>
<clipPath id="clip0_270_108">
<rect width="42" height="37" fill="white" transform="translate(14 16)"/>
</clipPath>
</defs>
</svg>
